<?xml version="1.0" standalone="no"?>
<!DOCTYPE svg PUBLIC "-//W3C//DTD SVG 20010904//EN"
 "http://www.w3.org/TR/2001/REC-SVG-20010904/DTD/svg10.dtd">
<svg version="1.0" xmlns="http://www.w3.org/2000/svg"
 width="900.000000pt" height="900.000000pt" viewBox="0 0 900.000000 900.000000"
 preserveAspectRatio="xMidYMid meet">
<metadata>
Created by potrace 1.14, written by Peter Selinger 2001-2017
</metadata>
<g transform="translate(0.000000,900.000000) scale(0.100000,-0.100000)"
fill="#000000" stroke="none">
<path d="M0 4500 l0 -4490 4500 0 4500 0 0 4490 0 4490 -4500 0 -4500 0 0
-4490z m2793 3378 c3 -18 6 -561 6 -1207 0 -646 4 -1178 9 -1183 5 -5 159 -7
343 -6 l334 3 5 1210 5 1210 840 0 840 0 0 -3405 0 -3405 -842 -3 -843 -2 -2
1332 -3 1333 -335 0 -335 0 -5 -1330 -5 -1330 -870 0 -870 0 -3 3395 c-1 1867
0 3401 3 3408 3 9 185 12 864 12 l859 0 5 -32z m5127 -2207 c0 -2075 -1 -2239
-17 -2245 -19 -8 -1671 -6 -1690 1 -11 4 -13 446 -13 2244 l0 2239 860 0 860
0 0 -2239z m-665 -2733 c198 -43 364 -136 505 -284 165 -173 257 -376 278
-614 8 -94 -5 -269 -26 -350 -76 -284 -252 -509 -502 -642 -129 -68 -236 -98
-390 -106 -208 -12 -374 27 -555 132 -94 55 -278 237 -333 331 -51 87 -92 185
-122 295 -33 120 -34 364 -2 489 80 308 271 544 546 676 98 46 227 83 316 88
79 5 227 -3 285 -15z"/>
</g>
</svg>
