<?xml version="1.0" standalone="no"?>
  <!DOCTYPE svg PUBLIC "-//W3C//DTD SVG 1.1//EN" "http://www.w3.org/Graphics/SVG/1.1/DTD/svg11.dtd" >
  <svg>
  <metadata>
  Created by font-carrier
  </metadata>
  <defs>
  <font id="LibreBaskerville-Regular" horiz-adv-x="1654" vert-adv-y="1654" >
    <font-face
      
      font-family="Libre Baskerville"
      
      font-weight="400"
      
      font-stretch="normal"
      
      units-per-em="1000"
      
      ascent="970"
      
      descent="-270"
      
    />
      <missing-glyph />

      

      
      <glyph glyph-name="uni6e" unicode="&#x6e;" d="M216 157Q216 116 218 92.50Q220 69 228.50 56.50Q237 44 253.50 40Q270 36 299 34L299 0L37 0L37 34Q65 36 81.50 40Q98 44 107 56Q116 68 118.50 90Q121 112 121 150L121 283Q121 402 115 428Q112 441 107.50 449.50Q103 458 94 462.50Q85 467 71 468.50Q57 470 35 470L35 502L195 540L207 441L211 441Q249 488 300 514Q351 540 411 540Q457 540 495 525Q533 510 553 484Q570 461 577 424.50Q584 388 584 324L584 157Q584 116 586.50 92.50Q589 69 597 56.50Q605 44 621.50 40Q638 36 665 34L665 0L406 0L406 34Q434 35 450.50 39.50Q467 44 475.50 56Q484 68 486.50 90.50Q489 113 489 150L489 282Q489 339 483 378Q477 417 463.50 441Q450 465 428 475.50Q406 486 375 486Q330 486 292.50 462.50Q255 439 234 398Q229 388 225.50 379Q222 370 220 358Q218 346 217 330.50Q216 315 216 291L216 157Z"  horiz-adv-x="689" vert-adv-y="1000"  />

      
      <glyph glyph-name="uni75" unicode="&#x75;" d="M463 370Q463 411 461 434.50Q459 458 450.50 470.50Q442 483 425.50 487.50Q409 492 380 495L380 530L561 530L561 223Q561 166 562.50 130Q564 94 567 76Q569 63 573.50 55.50Q578 48 587 43.50Q596 39 610.50 37.50Q625 36 648 36L648 1L483-11L472 109L468 109Q430 47 380.50 18.50Q331-10 277-10Q235-10 195.50 6Q156 22 136 49Q119 71 111.50 110Q104 149 104 211L104 370Q104 411 102 434.50Q100 458 91.50 470.50Q83 483 66.50 487.50Q50 492 21 495L21 530L202 530L202 257Q202 148 227.50 99Q253 50 309 50Q397 50 446 165Q451 177 454 187Q457 197 459 209Q461 221 462 236Q463 251 463 272L463 370Z"  horiz-adv-x="670" vert-adv-y="1000"  />

      
      <glyph glyph-name="uni68" unicode="&#x68;" d="M208 159Q208 118 210 94Q212 70 220.50 57.50Q229 45 245 41Q261 37 290 35L290 0L24 0L24 35Q53 37 70 41Q87 45 96 57Q105 69 107.50 91.50Q110 114 110 152L110 571Q110 630 108.50 665Q107 700 103 718Q101 730 96.50 737.50Q92 745 83 749.50Q74 754 59 756Q44 758 22 758L22 792L206 830L206 449L210 449Q225 469 247.50 485.50Q270 502 296 514Q322 526 350.50 533Q379 540 406 540Q452 540 490.50 524Q529 508 550 481Q567 458 575 420.50Q583 383 583 319L583 159Q583 118 585 94.50Q587 71 595.50 58Q604 45 620 41Q636 37 665 35L665 0L400 0L400 35Q428 36 445 40.50Q462 45 470.50 57Q479 69 481.50 91.50Q484 114 484 152L484 278Q484 390 458 437.50Q432 485 371 485Q324 485 285.50 461Q247 437 225 395Q220 384 216.50 374.50Q213 365 211 353Q209 341 208.50 325.50Q208 310 208 287L208 159Z"  horiz-adv-x="688" vert-adv-y="1000"  />

      
      <glyph glyph-name="uni6c" unicode="&#x6c;" d="M209 156Q209 118 212 95Q215 72 224.50 59Q234 46 251.50 41Q269 36 298 35L298 0L22 0L22 35Q52 36 70 41.50Q88 47 98.50 59Q109 71 112.50 92.50Q116 114 116 149L116 580Q116 634 114.50 670.50Q113 707 110 720Q105 743 86.50 751Q68 759 20 759L20 793L209 830L209 156Z"  horiz-adv-x="325" vert-adv-y="1000"  />

      
      <glyph glyph-name="uni72" unicode="&#x72;" d="M222 159Q222 118 224 94Q226 70 234.50 57.50Q243 45 259 41Q275 37 304 35L304 0L38 0L38 35Q67 36 84 40.50Q101 45 110 57Q119 69 121.50 91.50Q124 114 124 152L124 269Q124 337 122.50 375Q121 413 112.50 431Q104 449 86 452.50Q68 456 36 456L36 491L211 529L225 405L229 405Q242 435 261.50 460Q281 485 304 502.50Q327 520 352 530Q377 540 403 540Q435 540 453.50 524.50Q472 509 472 483Q472 459 457 445.50Q442 432 414 432Q398 432 387 436Q376 440 367.50 444.50Q359 449 351.50 453Q344 457 335 457Q308 457 281 422.50Q254 388 239 335Q231 306 226.50 269.50Q222 233 222 193L222 159Z"  horiz-adv-x="477" vert-adv-y="1000"  />

      
      <glyph glyph-name="uni0131" unicode="&#x0131;" d="M228 162Q228 123 231.50 99Q235 75 245 61.50Q255 48 273 43Q291 38 321 37L321 0L34 0L34 37Q64 38 83 43.50Q102 49 112.50 61.50Q123 74 126.50 96.50Q130 119 130 154L130 278Q130 336 128.50 373Q127 410 123 424Q118 448 100 456.50Q82 465 32 465L32 502L228 540L228 162Z"  horiz-adv-x="341" vert-adv-y="1000"  />

      
      <glyph glyph-name="uni6f" unicode="&#x6f;" d="M325 540Q382 540 433 519.50Q484 499 522.50 463Q561 427 583.50 377.50Q606 328 606 269Q606 208 583.50 157Q561 106 522.50 69Q484 32 433 11Q382-10 325-10Q269-10 218.50 10.50Q168 31 130 68Q92 105 70 156.50Q48 208 48 269Q48 328 70 378Q92 428 130 464Q168 500 218.50 520Q269 540 325 540M325 492Q288 492 257.50 476Q227 460 205.50 430.50Q184 401 172.50 359.50Q161 318 161 268Q161 216 172.50 174Q184 132 205.50 102.50Q227 73 257 57Q287 41 325 41Q363 41 394 57Q425 73 447 103Q469 133 481 175Q493 217 493 268Q493 318 481 359Q469 400 447 429.50Q425 459 394 475.50Q363 492 325 492Z"  horiz-adv-x="654" vert-adv-y="1000"  />

      
      <glyph glyph-name="uni70" unicode="&#x70;" d="M210 458L214 458Q246 496 283 518Q320 540 369 540Q426 540 473.50 519.50Q521 499 556 462Q591 425 610.50 374.50Q630 324 630 264Q630 203 610 152.50Q590 102 555 66Q520 30 472 10Q424-10 368-10Q322-10 284.50 5.50Q247 21 214 56L214-90Q214-130 218-154Q222-178 234-191Q246-204 268.50-209Q291-214 328-215L328-250L20-250L20-215Q50-214 68.50-209Q87-204 97.50-191Q108-178 112-155.50Q116-133 116-97L116 277Q116 335 114.50 372Q113 409 109 423Q104 447 86 455.50Q68 464 18 464L18 498L210 536L210 458M240 429Q227 409 220.50 381.50Q214 354 214 310L214 232Q214 205 215.50 185.50Q217 166 220 152Q223 138 228 127Q233 116 241 106Q264 74 296 56.50Q328 39 363 39Q432 39 474.50 97Q517 155 517 260Q517 312 505.50 354.50Q494 397 473 427.50Q452 458 422.50 475Q393 492 357 492Q321 492 290.50 475.50Q260 459 240 429Z"  horiz-adv-x="679" vert-adv-y="1000"  />

      
      <glyph glyph-name="uni64" unicode="&#x64;" d="M484 84L480 84Q444 33 403.50 11.50Q363-10 308-10Q251-10 203.50 10.50Q156 31 121.50 67.50Q87 104 67.50 155Q48 206 48 266Q48 325 67.50 375.50Q87 426 121.50 462.50Q156 499 204 519.50Q252 540 308 540Q356 540 393.50 524Q431 508 466 473L466 575Q466 632 464.50 670Q463 708 460 722Q455 744 432 753Q409 762 357 762L357 792L562 830L562 253Q562 184 563 139.50Q564 95 569 76Q572 64 576.50 56Q581 48 589.50 43.50Q598 39 612.50 37Q627 35 650 35L650 1L484-10L484 84M464 305Q464 357 458.50 384Q453 411 437 431Q414 461 378.50 476.50Q343 492 308 492Q236 492 198.50 432.50Q161 373 161 271Q161 218 170.50 175Q180 132 198.50 101.50Q217 71 244.50 54.50Q272 38 308 38Q326 38 344.50 42Q363 46 380.50 54.50Q398 63 413 74.50Q428 86 438 101Q452 123 458 154Q464 185 464 239L464 305Z"  horiz-adv-x="675" vert-adv-y="1000"  />

      
      <glyph glyph-name="uni62" unicode="&#x62;" d="M189 209Q189 171 200 139.50Q211 108 230.50 85.50Q250 63 277.50 50Q305 37 337 37Q372 37 400.50 53Q429 69 449.50 98.50Q470 128 481.50 169.50Q493 211 493 262Q493 313 481 355.50Q469 398 448 428.50Q427 459 397.50 476Q368 493 333 493Q292 493 260 473.50Q228 454 211 419Q189 375 189 298L189 209M187 459L191 459Q223 501 261.50 520.50Q300 540 351 540Q405 540 451.50 519Q498 498 532.50 461Q567 424 586.50 373.50Q606 323 606 265Q606 206 586 155.50Q566 105 531.50 68Q497 31 450 10Q403-11 348-11Q291-11 241.50 10Q192 31 160 67L113 0L91 0L91 604Q91 705 78 733Q75 740 71 744.50Q67 749 59 752.50Q51 756 37 759Q23 762-1 765L-1 790L187 830L187 459Z"  horiz-adv-x="654" vert-adv-y="1000"  />

      
      <glyph glyph-name="uni71" unicode="&#x71;" d="M464 320Q464 357 453 388.50Q442 420 422 442.50Q402 465 375 478Q348 491 317 491Q281 491 252.50 475Q224 459 203.50 429.50Q183 400 172 358Q161 316 161 265Q161 213 172 171Q183 129 203.50 99.50Q224 70 253 54Q282 38 318 38Q359 38 392 57Q425 76 442 111Q464 155 464 232L464 320M467 72L463 72Q428 28 390.50 9Q353-10 300-10Q244-10 198 9.50Q152 29 118.50 64.50Q85 100 66.50 149.50Q48 199 48 258Q48 317 68 368.50Q88 420 123 458Q158 496 205 518Q252 540 306 540Q360 540 410 518Q460 496 493 459L537 528L562 528L562-90Q562-132 564.50-156Q567-180 577.50-193Q588-206 608.50-210Q629-214 665-215L665-250L360-250L360-215Q392-214 412.50-208.50Q433-203 445-189.50Q457-176 462-153.50Q467-131 467-97L467 72Z"  horiz-adv-x="653" vert-adv-y="1000"  />

      
      <glyph glyph-name="uni6a" unicode="&#x6a;" d="M213-2Q213-127 160.50-193.50Q108-260 8-260Q-56-260-96.50-234.50Q-137-209-137-167Q-137-144-123.50-132Q-110-120-86-120Q-68-120-58.50-128.50Q-49-137-34-167Q-20-197-8-207Q4-217 29-217Q77-217 96-184Q115-151 115-68L115 280Q115 338 113.50 375.50Q112 413 108 427Q103 450 85 458.50Q67 467 17 467L17 502L213 540L213-2M100 743Q100 769 118 787Q136 805 162 805Q188 805 206 787Q224 769 224 743Q224 717 206 699Q188 681 162 681Q136 681 118 699Q100 717 100 743Z"  horiz-adv-x="304" vert-adv-y="1000"  />

      
      <glyph glyph-name="uni63" unicode="&#x63;" d="M506 83Q470 39 413 14.50Q356-10 290-10Q237-10 192.50 9.50Q148 29 116 64.50Q84 100 66.50 150Q49 200 49 261Q49 325 69 376.50Q89 428 125.50 464.50Q162 501 213.50 520.50Q265 540 327 540Q366 540 398 533.50Q430 527 453.50 515.50Q477 504 490 487.50Q503 471 503 452Q503 432 490 421Q477 410 454 410Q436 410 424 417.50Q412 425 393 451Q373 474 354.50 483.50Q336 493 307 493Q236 493 199.50 438Q163 383 163 276Q163 161 203.50 101.50Q244 42 322 42Q364 42 401 58.50Q438 75 476 112L506 83Z"  horiz-adv-x="536" vert-adv-y="1000"  />

      
      <glyph glyph-name="uni65" unicode="&#x65;" d="M522 93Q437-10 311-10Q252-10 204 9.50Q156 29 121.50 64.50Q87 100 68 149.50Q49 199 49 259Q49 320 69 372Q89 424 125.50 461Q162 498 212.50 519Q263 540 323 540Q420 540 473 487.50Q526 435 526 337Q526 323 520.50 320Q515 317 495 317L166 317Q164 309 163 297.50Q162 286 162 272Q162 220 174.50 177.50Q187 135 210.50 105Q234 75 266.50 58.50Q299 42 339 42Q381 42 417 60.50Q453 79 491 121L522 93M357 363Q377 363 389 364Q401 365 407 368Q413 371 415 376.50Q417 382 417 391Q417 437 387.50 464.50Q358 492 307 492Q199 492 173 363L357 363Z"  horiz-adv-x="573" vert-adv-y="1000"  />

      
      <glyph glyph-name="uni66" unicode="&#x66;" d="M22 514L135 514L135 586Q135 701 195.50 765.50Q256 830 368 830Q430 830 469 811Q508 792 508 762Q508 742 495.50 728.50Q483 715 464 715Q452 715 438.50 722.50Q425 730 403 748Q378 769 364 775.50Q350 782 331 782Q271 782 245 721Q236 701 232.50 672Q229 643 229 592L229 514L390 514L390 467L229 467L229 161Q229 124 233.50 100Q238 76 249.50 61.50Q261 47 281 41.50Q301 36 333 35L333 0L49 0L49 35Q77 36 94 40.50Q111 45 120 57.50Q129 70 132 92.50Q135 115 135 153L135 467L22 467L22 514Z"  horiz-adv-x="412" vert-adv-y="1000"  />

      
      <glyph glyph-name="uni67" unicode="&#x67;" d="M274 215Q316 215 339.50 253Q363 291 363 360Q363 428 339.50 465.50Q316 503 273 503Q230 503 204.50 465Q179 427 179 361Q179 295 205 255Q231 215 274 215M219 98Q243 96 263 94Q283 92 302.50 90Q322 88 341.50 85Q361 82 384 79Q456 68 499.50 23.50Q543-21 543-88Q543-172 476.50-216Q410-260 284-260Q228-260 181.50-250Q135-240 102-221.50Q69-203 50.50-177Q32-151 32-120Q32-99 39-81Q46-63 58-49.50Q70-36 86.50-28Q103-20 121-20Q155-20 182-41Q155-47 138-70.50Q121-94 121-124Q121-168 164.50-192Q208-216 288-216Q459-216 459-111Q459-71 432-44.50Q405-18 368-13Q344-10 318.50-6.50Q293-3 268.50 0Q244 3 223 5Q202 7 189 9Q133 15 104 39Q75 63 75 105Q75 140 104 167Q133 194 177 201L177 205Q155 214 136 230.50Q117 247 103.50 268Q90 289 82 313.50Q74 338 74 364Q74 402 88.50 434Q103 466 129.50 489.50Q156 513 192 526.50Q228 540 271 540Q315 540 354 526.50Q393 513 421 487Q455 515 481 527.50Q507 540 530 540Q566 540 587.50 523.50Q609 507 609 479Q609 462 597.50 452Q586 442 569 442Q555 442 546 447Q537 452 529.50 457.50Q522 463 514 468Q506 473 494 473Q470 473 445 456Q469 419 469 363Q469 278 416 229.50Q363 181 257 173Q196 168 172 160Q148 152 148 131Q148 115 166 107.50Q184 100 219 98Z"  horiz-adv-x="599" vert-adv-y="1000"  />

      
      <glyph glyph-name="uni6b" unicode="&#x6b;" d="M348 35Q381 35 393.50 38Q406 41 406 46Q405 54 390 75Q375 96 351 125L245 253L208 218L208 159Q208 120 211.50 96.50Q215 73 224.50 59.50Q234 46 252.50 41Q271 36 301 35L301 0L17 0L17 35Q47 36 65.50 41Q84 46 94.50 59Q105 72 109 94Q113 116 113 152L113 571Q113 647 111.50 686Q110 725 101 739Q92 753 71 755.50Q50 758 15 758L15 792L208 830L208 281L301 372Q346 417 368 438.50Q390 460 390 471Q390 482 369 488.50Q348 495 309 495L309 530L569 530L569 495Q550 495 536 493Q522 491 509.50 485Q497 479 483 468.50Q469 458 451 442L307 314L505 90Q519 73 530.50 62.50Q542 52 553.50 46Q565 40 578.50 37.50Q592 35 611 35L611 0L348 0L348 35Z"  horiz-adv-x="616" vert-adv-y="1000"  />

      
      <glyph glyph-name="uni73" unicode="&#x73;" d="M86 0L64 0L64 172L89 172Q128 31 231 31Q271 31 294.50 50.50Q318 70 318 110Q318 125 313.50 135.50Q309 146 296.50 157.50Q284 169 261.50 184Q239 199 202 222Q168 243 143 261Q118 279 101 297.50Q84 316 75.50 337Q67 358 67 386Q67 420 78.50 448.50Q90 477 110 497Q130 517 157 528.50Q184 540 216 540Q243 540 272 531.50Q301 523 323 509L343 530L362 530L362 386L336 386Q314 447 288 473Q262 499 224 499Q190 499 169.50 481Q149 463 149 431Q149 414 154.50 401.50Q160 389 172 377Q184 365 202.50 352.50Q221 340 247 324Q290 297 320.50 276Q351 255 370 234.50Q389 214 398 192Q407 170 407 142Q407 71 361 30.50Q315-10 240-10Q162-10 106 35L86 0Z"  horiz-adv-x="454" vert-adv-y="1000"  />

      
      <glyph glyph-name="uni74" unicode="&#x74;" d="M40 467L40 504Q93 535 123 566Q153 597 169 640L198 640L198 514L332 514L332 467L198 467L198 163Q198 128 201.50 104Q205 80 213 65.50Q221 51 234 45Q247 39 267 39Q292 39 309.50 49.50Q327 60 344 85L369 66Q355 29 320.50 9.50Q286-10 235-10Q169-10 134.50 21.50Q100 53 100 112L100 467L40 467Z"  horiz-adv-x="378" vert-adv-y="1000"  />

      
      <glyph glyph-name="uni76" unicode="&#x76;" d="M104 406Q92 436 82.50 453.50Q73 471 62 480Q51 489 37.50 491.50Q24 494 5 495L5 530L270 530L270 495Q250 494 237 493Q224 492 216.50 488.50Q209 485 206 478.50Q203 472 203 460Q203 443 207.50 428Q212 413 217 398L323 108L327 108L418 323Q439 373 448 403Q457 433 457 456Q457 479 445 487Q433 495 393 495L393 530L592 530L592 495Q576 495 563 487Q550 479 540 467Q532 456 523.50 437.50Q515 419 506.50 399Q498 379 491 359.50Q484 340 478 328L331-11L273-11L104 406Z"  horiz-adv-x="610" vert-adv-y="1000"  />

      
      <glyph glyph-name="uni77" unicode="&#x77;" d="M278-10L241-10L111 406Q102 434 94 451Q86 468 75 478Q64 488 49 491.50Q34 495 12 495L12 530L277 530L277 495Q238 495 222 486Q206 477 206 455Q206 445 209 431.50Q212 418 217 398L285 159L289 159L436 530L467 530L600 159L604 159L664 321Q676 354 684 376.50Q692 399 696.50 414.50Q701 430 703 440Q705 450 705 459Q705 481 692 488Q679 495 638 495L638 530L838 530L838 495Q823 495 812.50 490.50Q802 486 791.50 473Q781 460 770 436Q759 412 743 373L588-10L551-10L429 359L425 359L278-10Z"  horiz-adv-x="852" vert-adv-y="1000"  />

      
      <glyph glyph-name="uni78" unicode="&#x78;" d="M392 412Q416 442 416 463Q416 495 357 495L357 530L576 530L576 495Q558 495 543.50 491Q529 487 515 478Q501 469 486.50 453.50Q472 438 454 415L351 284L484 109Q515 68 541.50 51.50Q568 35 598 35L598 0L332 0L332 35Q368 35 382 40.50Q396 46 396 62Q396 69 387.50 82.50Q379 96 359 122L289 212L204 104Q189 86 189 68Q189 54 201 44.50Q213 35 239 35L239 0L10 0L10 35Q33 35 51 39Q69 43 85.50 53Q102 63 119.50 81Q137 99 159 126L261 251L128 440Q105 472 86 483.50Q67 495 38 495L38 530L284 530L284 495Q257 495 245 488.50Q233 482 233 471Q233 456 252 429L324 324L392 412Z"  horiz-adv-x="609" vert-adv-y="1000"  />

      
      <glyph glyph-name="uni79" unicode="&#x79;" d="M281-157Q235-260 138-260Q75-260 75-213Q75-188 92.50-176.50Q110-165 157-157Q178-154 193-148.50Q208-143 220-134.50Q232-126 241.50-113Q251-100 260-81L295-11L103 406Q90 434 80.50 450.50Q71 467 60.50 476.50Q50 486 37 489.50Q24 493 4 495L4 530L269 530L269 495Q202 495 202 462Q202 449 210 421Q218 393 230 364L340 98L345 98L436 323Q449 356 457.50 377Q466 398 470.50 411.50Q475 425 476.50 434Q478 443 478 451Q478 477 463.50 486Q449 495 408 495L408 530L628 530L628 495Q609 495 596 490Q583 485 569.50 467.50Q556 450 539.50 417Q523 384 499 328L281-157Z"  horiz-adv-x="639" vert-adv-y="1000"  />

      
      <glyph glyph-name="uni7a" unicode="&#x7a;" d="M498 0L18 0L18 4L364 488L253 488Q210 488 182.50 484.50Q155 481 137.50 470.50Q120 460 111 441.50Q102 423 97 392L65 392L81 530L511 530L511 526L170 46L287 46Q338 46 371.50 50Q405 54 426.50 66Q448 78 460.50 99Q473 120 482 155L515 155L498 0Z"  horiz-adv-x="557" vert-adv-y="1000"  />

      
      <glyph glyph-name="uni61" unicode="&#x61;" d="M349 296Q292 274 252.50 253Q213 232 189 211Q165 190 154.50 169Q144 148 144 126Q144 93 166 72Q188 51 224 51Q250 51 272.50 64Q295 77 312 99.50Q329 122 339 152.50Q349 183 349 217L349 296M349 339L349 380Q349 502 245 502Q228 502 216 499Q204 496 196 489Q188 482 181.50 469Q175 456 169 437Q158 408 147.50 398.50Q137 389 117 389Q67 389 67 439Q67 487 118 513.50Q169 540 263 540Q363 540 405 504.50Q447 469 447 384L447 160Q447 46 492 46Q506 46 519 49.50Q532 53 541 68L555 44Q543 21 511 5.50Q479-10 444-10Q400-10 378.50 18Q357 46 357 97L352 97Q326 48 280 19.50Q234-9 178-9Q115-9 79 23Q43 55 43 109Q43 133 51.50 155Q60 177 79 197Q98 217 129 236.50Q160 256 205 276L349 339Z"  horiz-adv-x="554" vert-adv-y="1000"  />

      
      <glyph glyph-name="uni49" unicode="&#x49;" d="M260 189Q260 139 264 110Q268 81 279.50 65Q291 49 312.50 44Q334 39 369 38L369 0L45 0L45 38Q80 39 101.50 44.50Q123 50 135 65Q147 80 151 107.50Q155 135 155 182L155 588Q155 630 151.50 657.50Q148 685 137.50 701Q127 717 107 723.50Q87 730 55 732L55 770L359 770L359 732Q327 731 307.50 724Q288 717 277.50 700.50Q267 684 263.50 655Q260 626 260 581L260 189Z"  horiz-adv-x="415" vert-adv-y="1000"  />

      
      <glyph glyph-name="uni48" unicode="&#x48;" d="M770 159Q770 121 774 97.50Q778 74 789.50 61.50Q801 49 822.50 44Q844 39 879 38L879 0L555 0L555 38Q590 39 611.50 44Q633 49 645 61Q657 73 661 95Q665 117 665 152L665 369L260 369L260 159Q260 121 264 97.50Q268 74 279.50 61.50Q291 49 312.50 44Q334 39 369 38L369 0L45 0L45 38Q80 39 101.50 44Q123 49 135 61Q147 73 151 95Q155 117 155 152L155 618Q155 653 151.50 674.50Q148 696 137.50 708.50Q127 721 107 725.50Q87 730 55 732L55 770L359 770L359 732Q327 731 307.50 726Q288 721 277.50 708Q267 695 263.50 672Q260 649 260 611L260 419L665 419L665 618Q665 653 661.50 674.50Q658 696 647.50 708.50Q637 721 617 725.50Q597 730 565 732L565 770L869 770L869 732Q837 731 817.50 726Q798 721 787.50 708Q777 695 773.50 672Q770 649 770 611L770 159Z"  horiz-adv-x="925" vert-adv-y="1000"  />

      
      <glyph glyph-name="uni4c" unicode="&#x4c;" d="M691 0L45 0L45 38Q80 39 101.50 44Q123 49 135 61Q147 73 151 95Q155 117 155 152L155 618Q155 653 151.50 674.50Q148 696 137.50 708.50Q127 721 107 725.50Q87 730 55 732L55 770L359 770L359 732Q327 731 307.50 726Q288 721 277.50 708Q267 695 263.50 672Q260 649 260 611L260 180Q260 138 268.50 111.50Q277 85 297.50 70.50Q318 56 352 50.50Q386 45 438 45Q495 45 534 51.50Q573 58 599.50 74.50Q626 91 641.50 120.50Q657 150 668 197L706 197L691 0Z"  horiz-adv-x="727" vert-adv-y="1000"  />

      
      <glyph glyph-name="uni45" unicode="&#x45;" d="M260 423Q314 423 350.50 429.50Q387 436 408.50 450Q430 464 439.50 486Q449 508 449 538L484 538L484 265L449 265Q449 295 440.50 317Q432 339 410.50 353.50Q389 368 352.50 375.50Q316 383 260 383L260 157Q260 124 268 102.50Q276 81 295.50 67.50Q315 54 347 48.50Q379 43 426 43Q479 43 516 50.50Q553 58 578 76Q603 94 618 123.50Q633 153 643 197L681 197L666 0L45 0L45 38Q80 39 101.50 44Q123 49 135 61Q147 73 151 95Q155 117 155 152L155 618Q155 653 151.50 674.50Q148 696 137.50 708.50Q127 721 107 725.50Q87 730 55 732L55 770L633 770L642 594L607 594Q601 634 587.50 659.50Q574 685 550.50 700Q527 715 491 721Q455 727 404 727L277 727Q260 727 260 710L260 423Z"  horiz-adv-x="726" vert-adv-y="1000"  />

      
      <glyph glyph-name="uni46" unicode="&#x46;" d="M260 159Q260 121 264.50 97.50Q269 74 284 61.50Q299 49 326.50 44Q354 39 399 38L399 0L45 0L45 38Q80 39 101.50 44Q123 49 135 61Q147 73 151 95Q155 117 155 152L155 618Q155 653 151.50 674.50Q148 696 137.50 708.50Q127 721 107 725.50Q87 730 55 732L55 770L633 770L644 579L609 579Q603 622 590 649.50Q577 677 553.50 693Q530 709 494 715.50Q458 722 404 722L277 722Q260 722 260 705L260 403Q308 403 342.50 408.50Q377 414 399.50 428Q422 442 434 466Q446 490 449 528L484 528L484 235L449 235Q444 273 433 298Q422 323 400.50 337Q379 351 345 357Q311 363 260 363L260 159Z"  horiz-adv-x="670" vert-adv-y="1000"  />

      
      <glyph glyph-name="uni4a" unicode="&#x4a;" d="M145 618Q145 653 141.50 674.50Q138 696 127.50 708.50Q117 721 97 725.50Q77 730 45 732L45 770L349 770L349 732Q317 731 297.50 726Q278 721 267.50 708Q257 695 253.50 672Q250 649 250 611L250-2Q250-128 197-194Q144-260 42-260Q-27-260-68.50-233.50Q-110-207-110-163Q-110-137-96.50-123.50Q-83-110-59-110Q-40-110-28.50-119.50Q-17-129-2-157Q15-189 27.50-200.50Q40-212 60-212Q101-212 123-168Q145-124 145-43L145 618Z"  horiz-adv-x="394" vert-adv-y="1000"  />

      
      <glyph glyph-name="uni4b" unicode="&#x4b;" d="M260 159Q260 121 264 97Q268 73 280 60Q292 47 313 42.50Q334 38 369 38L369 0L45 0L45 38Q80 38 101.50 42.50Q123 47 135 59.50Q147 72 151 94.50Q155 117 155 152L155 618Q155 656 150.50 678.50Q146 701 134.50 713Q123 725 104 728.50Q85 732 55 732L55 770L359 770L359 732Q329 732 310 728Q291 724 279.50 711Q268 698 264 674.50Q260 651 260 611L260 364L510 665Q530 690 530 704Q530 732 473 732L473 770L714 770L714 733Q694 733 679 730.50Q664 728 649.50 720Q635 712 619 697Q603 682 582 658L394 441L686 90Q711 61 733 49.50Q755 38 792 38L792 0L485 0L485 38Q524 38 541 44.50Q558 51 558 65Q558 73 550 88Q542 103 524 125L329 365L260 285L260 159Z"  horiz-adv-x="779" vert-adv-y="1000"  />

      
      <glyph glyph-name="uni4d" unicode="&#x4d;" d="M550 179L810 770L1034 770L1034 732Q1002 731 982.50 724Q963 717 952.50 700.50Q942 684 938.50 655Q935 626 935 581L935 189Q935 139 939 110Q943 81 954.50 65Q966 49 987.50 44Q1009 39 1044 38L1044 0L720 0L720 38Q755 39 776.50 44.50Q798 50 810 65Q822 80 826 107.50Q830 135 830 182L830 646L820 646L528-10L506-10L219 646L215 646L215 189Q215 139 219 110Q223 81 234.50 65Q246 49 267.50 44Q289 39 324 38L324 0L45 0L45 38Q80 39 101.50 44.50Q123 50 135 65Q147 80 151 107.50Q155 135 155 182L155 588Q155 630 151.50 657.50Q148 685 137.50 701Q127 717 107 723.50Q87 730 55 732L55 770L294 770L546 179L550 179Z"  horiz-adv-x="1090" vert-adv-y="1000"  />

      
      <glyph glyph-name="uni41" unicode="&#x41;" d="M488 279L221 279Q204 238 192 206.50Q180 175 172.50 152Q165 129 162 113Q159 97 159 87Q159 59 177 48.50Q195 38 237 38L237 0L-6 0L-6 38Q17 41 33.50 46Q50 51 62.50 60Q75 69 84.50 83.50Q94 98 103 119L363 770L406 770L633 206Q656 150 673 116.50Q690 83 706 66Q722 49 740.50 44Q759 39 785 39L785 0L459 0L459 39Q512 39 532 49Q552 59 552 82Q552 92 551 100.50Q550 109 547.50 119Q545 129 540.50 141.50Q536 154 529 171L488 279M241 329L469 329L358 624L241 329Z"  horiz-adv-x="772" vert-adv-y="1000"  />

      
      <glyph glyph-name="uni4f" unicode="&#x4f;" d="M473 780Q561 780 637 749Q713 718 769 664Q825 610 857 537Q889 464 889 379Q889 298 856.50 227Q824 156 768 103.50Q712 51 636 20.50Q560-10 473-10Q386-10 310 20.50Q234 51 178 103.50Q122 156 89.50 227Q57 298 57 379Q57 464 89 537Q121 610 177 664Q233 718 309 749Q385 780 473 780M473 45Q539 45 591.50 68Q644 91 681.50 134Q719 177 739 238.50Q759 300 759 376Q759 456 739 520.50Q719 585 682 630.50Q645 676 592 700.50Q539 725 473 725Q407 725 354 700.50Q301 676 264 630.50Q227 585 207 520.50Q187 456 187 376Q187 300 207 238.50Q227 177 264 134Q301 91 354 68Q407 45 473 45Z"  horiz-adv-x="946" vert-adv-y="1000"  />

      
      <glyph glyph-name="uni51" unicode="&#x51;" d="M474 780Q562 780 638 749Q714 718 770 664Q826 610 858 536.50Q890 463 890 378Q890 284 851.50 206.50Q813 129 749 73Q707 37 655 12.50Q603-12 546-33Q519-44 493.50-56Q468-68 447-84L447-88Q453-87 463.50-86.50Q474-86 482-86Q527-86 566-97.50Q605-109 642-123.50Q679-138 716-149.50Q753-161 794-161Q841-161 865-141Q889-121 904-72L929-72Q931-81 932-92Q933-103 933-114Q933-146 919.50-172.50Q906-199 882.50-218.50Q859-238 827-249Q795-260 758-260Q702-260 654.50-238.50Q607-217 564.50-191.50Q522-166 483-144.50Q444-123 406-123Q380-123 364-133Q348-143 335-155.50Q322-168 310.50-178Q299-188 282-188Q253-188 253-163Q253-156 255-151Q257-146 263.50-139.50Q270-133 283-124.50Q296-116 319-103L449-29Q365-26 293 6.50Q221 39 169 93.50Q117 148 87.50 220.50Q58 293 58 376Q58 462 90 536Q122 610 178 664Q234 718 310 749Q386 780 474 780M474 20Q540 20 592.50 45Q645 70 682.50 116.50Q720 163 740 228.50Q760 294 760 376Q760 456 740 520.50Q720 585 683 630.50Q646 676 593 700.50Q540 725 474 725Q408 725 355 700.50Q302 676 265 630.50Q228 585 208 520.50Q188 456 188 376Q188 294 208 228.50Q228 163 265 116.50Q302 70 355 45Q408 20 474 20Z"  horiz-adv-x="948" vert-adv-y="1000"  />

      
      <glyph glyph-name="uni43" unicode="&#x43;" d="M689 770L717 770L726 540L689 540Q667 628 604 678Q541 728 452 728Q391 728 343 704Q295 680 262 635Q229 590 211.50 525Q194 460 194 378Q194 217 261 130.50Q328 44 455 44Q648 44 703 249L744 249L744 0L709 0L686 79Q581-10 432-10Q347-10 278.50 17Q210 44 161.50 93.50Q113 143 86.50 214Q60 285 60 372Q60 463 88 538Q116 613 166.50 667Q217 721 287.50 750.50Q358 780 443 780Q503 780 556 763Q609 746 671 708L689 770Z"  horiz-adv-x="802" vert-adv-y="1000"  />

      
      <glyph glyph-name="uni47" unicode="&#x47;" d="M428-10Q343-10 275 17Q207 44 159 93.50Q111 143 85.50 214Q60 285 60 372Q60 463 88 538Q116 613 166.50 667Q217 721 287.50 750.50Q358 780 443 780Q503 780 556 763Q609 746 671 708L692 770L727 770L714 540L666 540Q666 589 647.50 624.50Q629 660 599 683Q569 706 530.50 717Q492 728 452 728Q391 728 343 704Q295 680 262 635Q229 590 211.50 525Q194 460 194 378Q194 217 261 130.50Q328 44 455 44Q503 44 541 55.50Q579 67 605.50 86.50Q632 106 645.50 131.50Q659 157 659 185Q659 243 635.50 263.50Q612 284 559 284L559 322L843 322L843 284Q819 284 803 280Q787 276 777.50 265.50Q768 255 764.50 238Q761 221 761 195L761 83Q742 83 726.50 81.50Q711 80 694 74.50Q677 69 656.50 59.50Q636 50 608 34Q573 14 527.50 2Q482-10 428-10Z"  horiz-adv-x="870" vert-adv-y="1000"  />

      
      <glyph glyph-name="uni44" unicode="&#x44;" d="M38 0L38 38Q76 39 99.50 43.50Q123 48 136 60.50Q149 73 153.50 94.50Q158 116 158 152L158 618Q158 653 154.50 674.50Q151 696 140.50 708.50Q130 721 110 725.50Q90 730 58 732L58 770L409 770Q499 770 575.50 740Q652 710 707.50 657Q763 604 794 531Q825 458 825 372Q825 290 796 221.50Q767 153 714.50 104Q662 55 589 27.50Q516 0 429 0L38 0M280 721Q263 721 263 704L263 163Q263 49 412 49Q549 49 622 130.50Q695 212 695 370Q695 453 675 518Q655 583 617.50 628Q580 673 527 697Q474 721 407 721L280 721Z"  horiz-adv-x="884" vert-adv-y="1000"  />

      
      <glyph glyph-name="uni42" unicode="&#x42;" d="M38 0L38 38Q77 39 100.50 44Q124 49 136.50 61Q149 73 153.50 95Q158 117 158 152L158 618Q158 653 154.50 674.50Q151 696 140.50 708.50Q130 721 110 725.50Q90 730 58 732L58 770L357 770Q492 770 567 722Q642 674 642 587Q642 521 600.50 479Q559 437 469 410L469 406Q500 403 523 399Q546 395 564 389.50Q582 384 597.50 376Q613 368 628 358Q717 295 717 200Q717 147 687.50 101.50Q658 56 605 30Q588 21 570 15.50Q552 10 528 6.50Q504 3 472.50 1.50Q441 0 398 0L38 0M401 43Q582 43 582 198Q582 311 489 356Q473 363 458 368Q443 373 423 375.50Q403 378 375.50 379Q348 380 308 380L263 380L263 157Q263 96 295 69.50Q327 43 401 43M319 430Q350 430 371 431Q392 432 407 434.50Q422 437 433.50 441.50Q445 446 457 454Q489 474 502.50 502Q516 530 516 575Q516 654 477.50 688.50Q439 723 357 723L280 723Q263 723 263 706L263 430L319 430Z"  horiz-adv-x="767" vert-adv-y="1000"  />

      
      <glyph glyph-name="uni56" unicode="&#x56;" d="M424 153L600 587Q615 624 621 645Q627 666 627 683Q627 710 610.50 721Q594 732 549 732L549 770L792 770L792 732Q769 729 752.50 724Q736 719 723.50 710Q711 701 701.50 686.50Q692 672 683 651L412-10L377-10L119 613Q106 643 93.50 665Q81 687 66 701Q51 715 32 722Q13 729-13 731L-13 770L313 770L313 731Q285 731 267.50 728.50Q250 726 240 720.50Q230 715 226 707Q222 699 222 689Q222 675 227 656.50Q232 638 246 603L424 153Z"  horiz-adv-x="784" vert-adv-y="1000"  />

      
      <glyph glyph-name="uni4e" unicode="&#x4e;" d="M694-10L219 616L215 616L215 189Q215 139 218.50 110Q222 81 232.50 65Q243 49 262.50 44Q282 39 314 38L314 0L45 0L45 38Q80 39 101.50 44.50Q123 50 135 65Q147 80 151 107.50Q155 135 155 182L155 588Q155 630 151.50 657.50Q148 685 137.50 701Q127 717 107 723.50Q87 730 55 732L55 770L253 770L690 187L694 187L694 581Q694 630 690.50 659.50Q687 689 676.50 705Q666 721 646.50 726Q627 731 595 732L595 770L864 770L864 732Q829 731 807.50 725.50Q786 720 774 705Q762 690 758 662Q754 634 754 588L754-10L694-10Z"  horiz-adv-x="902" vert-adv-y="1000"  />

      
      <glyph glyph-name="uni50" unicode="&#x50;" d="M658 577Q658 524 641 482Q624 440 587.50 411Q551 382 492.50 366Q434 350 350 350L260 350L260 157Q260 120 264.50 96.50Q269 73 283.50 60Q298 47 325.50 42.50Q353 38 398 38L398 0L45 0L45 38Q80 39 101.50 44Q123 49 135 61Q147 73 151 95Q155 117 155 152L155 618Q155 653 151.50 674.50Q148 696 137.50 708.50Q127 721 107 725.50Q87 730 55 732L55 770L369 770Q507 770 582.50 719Q658 668 658 577M260 400L331 400Q431 400 479.50 438.50Q528 477 528 565Q528 650 489.50 686.50Q451 723 369 723L277 723Q260 723 260 706L260 400Z"  horiz-adv-x="687" vert-adv-y="1000"  />

      
      <glyph glyph-name="uni52" unicode="&#x52;" d="M658 577Q658 497 610 444Q562 391 457 373L678 107Q705 74 737.50 59.50Q770 45 815 38L815 0L622 0L377 314Q364 331 352.50 341Q341 351 328.50 356.50Q316 362 299.50 363.50Q283 365 260 365L260 157Q260 120 264.50 96.50Q269 73 283.50 60Q298 47 325.50 42.50Q353 38 398 38L398 0L45 0L45 38Q80 39 101.50 44Q123 49 135 61Q147 73 151 95Q155 117 155 152L155 618Q155 653 151.50 674.50Q148 696 137.50 708.50Q127 721 107 725.50Q87 730 55 732L55 770L369 770Q507 770 582.50 719Q658 668 658 577M260 415L331 415Q431 415 479.50 451.50Q528 488 528 572Q528 653 489.50 688Q451 723 369 723L277 723Q260 723 260 706L260 415Z"  horiz-adv-x="788" vert-adv-y="1000"  />

      
      <glyph glyph-name="uni53" unicode="&#x53;" d="M58 235L95 235Q102 190 121.50 154Q141 118 170.50 93Q200 68 238.50 54.50Q277 41 322 41Q396 41 439 76Q482 111 482 171Q482 196 473.50 217Q465 238 445 257.50Q425 277 391.50 296Q358 315 307 337Q245 364 203 389Q161 414 136 441Q111 468 100.50 498.50Q90 529 90 568Q90 614 106.50 653Q123 692 153 720.50Q183 749 224 764.50Q265 780 314 780Q358 780 396 766Q434 752 473 721L499 766L522 766L533 567L496 567Q472 649 426.50 689Q381 729 317 729Q256 729 220 699Q184 669 184 618Q184 594 192 574.50Q200 555 218 537.50Q236 520 265 502.50Q294 485 337 466Q411 433 460 404.50Q509 376 538 347.50Q567 319 579 287.50Q591 256 591 217Q591 167 571 125Q551 83 515 53Q479 23 429 6.50Q379-10 319-10Q262-10 216.50 6Q171 22 124 60L96 11L73 11L58 235Z"  horiz-adv-x="645" vert-adv-y="1000"  />

      
      <glyph glyph-name="uni54" unicode="&#x54;" d="M786 579L745 579Q742 622 731 651Q720 680 699.50 696.50Q679 713 648 720Q617 727 574 727Q537 727 514.50 725.50Q492 724 480 720Q468 716 464.50 710.50Q461 705 461 696L461 161Q461 129 465.50 106Q470 83 483.50 68.50Q497 54 522.50 46.50Q548 39 590 38L590 0L212 0L212 38Q254 39 280 46.50Q306 54 319.50 68.50Q333 83 337.50 106Q342 129 342 161L342 696Q342 705 338.50 710.50Q335 716 324.50 720Q314 724 295 725.50Q276 727 244 727Q205 727 171.50 724Q138 721 113.50 706.50Q89 692 74 662Q59 632 58 579L21 579L21 770L776 770L786 579Z"  horiz-adv-x="803" vert-adv-y="1000"  />

      
      <glyph glyph-name="uni55" unicode="&#x55;" d="M722 310Q722 231 706.50 171Q691 111 656.50 71Q622 31 567 10.50Q512-10 434-10Q360-10 305 4.50Q250 19 213 52.50Q176 86 158 140Q140 194 140 273L140 537Q140 611 136.50 651Q133 691 116 710Q104 723 83.50 727.50Q63 732 29 732L29 770L370 770L370 732Q336 732 315 728Q294 724 282 708Q268 690 264 650.50Q260 611 260 537L260 265Q260 214 270.50 174.50Q281 135 305 107.50Q329 80 367.50 66Q406 52 462 52Q562 52 612 107.50Q662 163 662 271L662 512Q662 601 655 647Q648 693 629 712Q615 725 594 728.50Q573 732 542 732L542 770L832 770L832 732Q800 732 779.50 727Q759 722 747 705Q732 684 727 639.50Q722 595 722 512L722 310Z"  horiz-adv-x="861" vert-adv-y="1000"  />

      
      <glyph glyph-name="uni57" unicode="&#x57;" d="M834 151L990 585Q1004 624 1010 647Q1016 670 1016 687Q1016 713 999.50 722.50Q983 732 941 732L941 770L1184 770L1184 732Q1138 732 1114.50 713Q1091 694 1075 651L824-10L789-10L597 559L384-10L349-10L141 564Q123 612 108.50 644.50Q94 677 77.50 696Q61 715 40 723Q19 731-11 731L-11 770L315 770L315 731Q264 731 243.50 722Q223 713 223 687Q223 674 227 657Q231 640 239 617L391 154L514 500Q528 539 541.50 572.50Q555 606 563 633Q549 662 537.50 681Q526 700 514.50 711Q503 722 490.50 726.50Q478 731 464 731L464 770L770 770L770 731Q741 731 723 729Q705 727 695.50 722.50Q686 718 682.50 710Q679 702 679 691Q679 676 684.50 654.50Q690 633 700 600L834 151Z"  horiz-adv-x="1176" vert-adv-y="1000"  />

      
      <glyph glyph-name="uni58" unicode="&#x58;" d="M695 109Q747 38 822 38L822 0L481 0L481 38Q526 38 542.50 46.50Q559 55 559 70Q559 77 557.50 84.50Q556 92 550.50 103Q545 114 535 130Q525 146 508 172L394 342L308 234Q277 195 256 167Q235 139 222.50 119Q210 99 204.50 86Q199 73 199 64Q199 49 216 43.50Q233 38 280 38L280 0L2 0L2 38Q26 38 45.50 43Q65 48 84 59.50Q103 71 122.50 90.50Q142 110 165 139L361 389L158 666Q133 701 102 716.50Q71 732 28 732L28 770L360 770L360 732Q295 732 295 693Q295 668 323 627L432 465L530 589Q558 624 569 646Q580 668 580 688Q580 713 563.50 722.50Q547 732 505 732L505 770L780 770L780 732Q756 732 738.50 728.50Q721 725 705 714Q689 703 670 682Q651 661 624 626L465 421L695 109Z"  horiz-adv-x="818" vert-adv-y="1000"  />

      
      <glyph glyph-name="uni59" unicode="&#x59;" d="M114 646Q99 672 86 688.50Q73 705 59.50 715Q46 725 31 728.50Q16 732-5 732L-5 770L310 770L310 732Q260 732 239.50 724.50Q219 717 219 698Q219 677 242 638L397 373L401 373L514 563Q546 617 559.50 648Q573 679 573 698Q573 717 558.50 724.50Q544 732 508 732L508 770L737 770L737 732Q716 732 699.50 726Q683 720 665 702Q647 684 625.50 652Q604 620 573 568L419 308L419 189Q419 140 422.50 110.50Q426 81 437.50 65Q449 49 470.50 43.50Q492 38 528 38L528 0L204 0L204 38Q240 38 261.50 43.50Q283 49 294.50 64.50Q306 80 310 108Q314 136 314 182L314 304L114 646Z"  horiz-adv-x="733" vert-adv-y="1000"  />

      
      <glyph glyph-name="uni5a" unicode="&#x5a;" d="M710 0L16 0L16 4L542 728L268 728Q197 728 162 696Q127 664 113 586L76 586L91 770L700 770L700 766L179 46L489 46Q540 46 573 53.50Q606 61 626.50 82Q647 103 658.50 139.50Q670 176 679 235L722 235L710 0Z"  horiz-adv-x="770" vert-adv-y="1000"  />

      
      <glyph glyph-name="uni02D9" unicode="&#x02D9;" d="M20 743Q20 769 38 787Q56 805 82 805Q108 805 126 787Q144 769 144 743Q144 717 126 699Q108 681 82 681Q56 681 38 699Q20 717 20 743Z"  horiz-adv-x="164" vert-adv-y="1000"  />

      
      <glyph glyph-name="unia8" unicode="&#xa8;" d="M20 709Q20 734 36.50 750.50Q53 767 78 767Q103 767 119.50 750.50Q136 734 136 709Q136 684 119.50 667.50Q103 651 78 651Q53 651 36.50 667.50Q20 684 20 709M187 709Q187 734 203.50 750.50Q220 767 245 767Q270 767 286.50 750.50Q303 734 303 709Q303 684 286.50 667.50Q270 651 245 651Q220 651 203.50 667.50Q187 684 187 709Z"  horiz-adv-x="323" vert-adv-y="1000"  />

      
      <glyph glyph-name="uni0237" unicode="&#x0237;" d="M213-2Q213-127 160.50-193.50Q108-260 8-260Q-56-260-96.50-234.50Q-137-209-137-167Q-137-144-123.50-132Q-110-120-86-120Q-68-120-58.50-128.50Q-49-137-34-167Q-20-197-8-207Q4-217 29-217Q77-217 96-184Q115-151 115-68L115 280Q115 338 113.50 375.50Q112 413 108 427Q103 450 85 458.50Q67 467 17 467L17 502L213 540L213-2Z"  horiz-adv-x="304" vert-adv-y="1000"  />

      
      <glyph glyph-name="uni1E45" unicode="&#x1E45;" d="M216 157Q216 116 218 92.50Q220 69 228.50 56.50Q237 44 253.50 40Q270 36 299 34L299 0L37 0L37 34Q65 36 81.50 40Q98 44 107 56Q116 68 118.50 90Q121 112 121 150L121 283Q121 402 115 428Q112 441 107.50 449.50Q103 458 94 462.50Q85 467 71 468.50Q57 470 35 470L35 502L195 540L207 441L211 441Q249 488 300 514Q351 540 411 540Q457 540 495 525Q533 510 553 484Q570 461 577 424.50Q584 388 584 324L584 157Q584 116 586.50 92.50Q589 69 597 56.50Q605 44 621.50 40Q638 36 665 34L665 0L406 0L406 34Q434 35 450.50 39.50Q467 44 475.50 56Q484 68 486.50 90.50Q489 113 489 150L489 282Q489 339 483 378Q477 417 463.50 441Q450 465 428 475.50Q406 486 375 486Q330 486 292.50 462.50Q255 439 234 398Q229 388 225.50 379Q222 370 220 358Q218 346 217 330.50Q216 315 216 291L216 157M291 743Q291 769 309 787Q327 805 353 805Q379 805 397 787Q415 769 415 743Q415 717 397 699Q379 681 353 681Q327 681 309 699Q291 717 291 743Z"  horiz-adv-x="689" vert-adv-y="1000"  />

      
      <glyph glyph-name="uni010B" unicode="&#x010B;" d="M506 83Q470 39 413 14.50Q356-10 290-10Q237-10 192.50 9.50Q148 29 116 64.50Q84 100 66.50 150Q49 200 49 261Q49 325 69 376.50Q89 428 125.50 464.50Q162 501 213.50 520.50Q265 540 327 540Q366 540 398 533.50Q430 527 453.50 515.50Q477 504 490 487.50Q503 471 503 452Q503 432 490 421Q477 410 454 410Q436 410 424 417.50Q412 425 393 451Q373 474 354.50 483.50Q336 493 307 493Q236 493 199.50 438Q163 383 163 276Q163 161 203.50 101.50Q244 42 322 42Q364 42 401 58.50Q438 75 476 112L506 83M254 743Q254 769 272 787Q290 805 316 805Q342 805 360 787Q378 769 378 743Q378 717 360 699Q342 681 316 681Q290 681 272 699Q254 717 254 743Z"  horiz-adv-x="536" vert-adv-y="1000"  />

      
      <glyph glyph-name="uni0117" unicode="&#x0117;" d="M522 93Q437-10 311-10Q252-10 204 9.50Q156 29 121.50 64.50Q87 100 68 149.50Q49 199 49 259Q49 320 69 372Q89 424 125.50 461Q162 498 212.50 519Q263 540 323 540Q420 540 473 487.50Q526 435 526 337Q526 323 520.50 320Q515 317 495 317L166 317Q164 309 163 297.50Q162 286 162 272Q162 220 174.50 177.50Q187 135 210.50 105Q234 75 266.50 58.50Q299 42 339 42Q381 42 417 60.50Q453 79 491 121L522 93M357 363Q377 363 389 364Q401 365 407 368Q413 371 415 376.50Q417 382 417 391Q417 437 387.50 464.50Q358 492 307 492Q199 492 173 363L357 363M251 743Q251 769 269 787Q287 805 313 805Q339 805 357 787Q375 769 375 743Q375 717 357 699Q339 681 313 681Q287 681 269 699Q251 717 251 743Z"  horiz-adv-x="573" vert-adv-y="1000"  />

      
      <glyph glyph-name="uni017C" unicode="&#x017C;" d="M498 0L18 0L18 4L364 488L253 488Q210 488 182.50 484.50Q155 481 137.50 470.50Q120 460 111 441.50Q102 423 97 392L65 392L81 530L511 530L511 526L170 46L287 46Q338 46 371.50 50Q405 54 426.50 66Q448 78 460.50 99Q473 120 482 155L515 155L498 0M225 743Q225 769 243 787Q261 805 287 805Q313 805 331 787Q349 769 349 743Q349 717 331 699Q313 681 287 681Q261 681 243 699Q225 717 225 743Z"  horiz-adv-x="557" vert-adv-y="1000"  />

      
      <glyph glyph-name="unie4" unicode="&#xe4;" d="M349 296Q292 274 252.50 253Q213 232 189 211Q165 190 154.50 169Q144 148 144 126Q144 93 166 72Q188 51 224 51Q250 51 272.50 64Q295 77 312 99.50Q329 122 339 152.50Q349 183 349 217L349 296M349 339L349 380Q349 502 245 502Q228 502 216 499Q204 496 196 489Q188 482 181.50 469Q175 456 169 437Q158 408 147.50 398.50Q137 389 117 389Q67 389 67 439Q67 487 118 513.50Q169 540 263 540Q363 540 405 504.50Q447 469 447 384L447 160Q447 46 492 46Q506 46 519 49.50Q532 53 541 68L555 44Q543 21 511 5.50Q479-10 444-10Q400-10 378.50 18Q357 46 357 97L352 97Q326 48 280 19.50Q234-9 178-9Q115-9 79 23Q43 55 43 109Q43 133 51.50 155Q60 177 79 197Q98 217 129 236.50Q160 256 205 276L349 339M124 709Q124 734 140.50 750.50Q157 767 182 767Q207 767 223.50 750.50Q240 734 240 709Q240 684 223.50 667.50Q207 651 182 651Q157 651 140.50 667.50Q124 684 124 709M291 709Q291 734 307.50 750.50Q324 767 349 767Q374 767 390.50 750.50Q407 734 407 709Q407 684 390.50 667.50Q374 651 349 651Q324 651 307.50 667.50Q291 684 291 709Z"  horiz-adv-x="554" vert-adv-y="1000"  />

      
      <glyph glyph-name="unifc" unicode="&#xfc;" d="M463 370Q463 411 461 434.50Q459 458 450.50 470.50Q442 483 425.50 487.50Q409 492 380 495L380 530L561 530L561 223Q561 166 562.50 130Q564 94 567 76Q569 63 573.50 55.50Q578 48 587 43.50Q596 39 610.50 37.50Q625 36 648 36L648 1L483-11L472 109L468 109Q430 47 380.50 18.50Q331-10 277-10Q235-10 195.50 6Q156 22 136 49Q119 71 111.50 110Q104 149 104 211L104 370Q104 411 102 434.50Q100 458 91.50 470.50Q83 483 66.50 487.50Q50 492 21 495L21 530L202 530L202 257Q202 148 227.50 99Q253 50 309 50Q397 50 446 165Q451 177 454 187Q457 197 459 209Q461 221 462 236Q463 251 463 272L463 370M172 709Q172 734 188.50 750.50Q205 767 230 767Q255 767 271.50 750.50Q288 734 288 709Q288 684 271.50 667.50Q255 651 230 651Q205 651 188.50 667.50Q172 684 172 709M339 709Q339 734 355.50 750.50Q372 767 397 767Q422 767 438.50 750.50Q455 734 455 709Q455 684 438.50 667.50Q422 651 397 651Q372 651 355.50 667.50Q339 684 339 709Z"  horiz-adv-x="670" vert-adv-y="1000"  />

      
      <glyph glyph-name="unif6" unicode="&#xf6;" d="M325 540Q382 540 433 519.50Q484 499 522.50 463Q561 427 583.50 377.50Q606 328 606 269Q606 208 583.50 157Q561 106 522.50 69Q484 32 433 11Q382-10 325-10Q269-10 218.50 10.50Q168 31 130 68Q92 105 70 156.50Q48 208 48 269Q48 328 70 378Q92 428 130 464Q168 500 218.50 520Q269 540 325 540M325 492Q288 492 257.50 476Q227 460 205.50 430.50Q184 401 172.50 359.50Q161 318 161 268Q161 216 172.50 174Q184 132 205.50 102.50Q227 73 257 57Q287 41 325 41Q363 41 394 57Q425 73 447 103Q469 133 481 175Q493 217 493 268Q493 318 481 359Q469 400 447 429.50Q425 459 394 475.50Q363 492 325 492M184 709Q184 734 200.50 750.50Q217 767 242 767Q267 767 283.50 750.50Q300 734 300 709Q300 684 283.50 667.50Q267 651 242 651Q217 651 200.50 667.50Q184 684 184 709M351 709Q351 734 367.50 750.50Q384 767 409 767Q434 767 450.50 750.50Q467 734 467 709Q467 684 450.50 667.50Q434 651 409 651Q384 651 367.50 667.50Q351 684 351 709Z"  horiz-adv-x="654" vert-adv-y="1000"  />

      
      <glyph glyph-name="unieb" unicode="&#xeb;" d="M522 93Q437-10 311-10Q252-10 204 9.50Q156 29 121.50 64.50Q87 100 68 149.50Q49 199 49 259Q49 320 69 372Q89 424 125.50 461Q162 498 212.50 519Q263 540 323 540Q420 540 473 487.50Q526 435 526 337Q526 323 520.50 320Q515 317 495 317L166 317Q164 309 163 297.50Q162 286 162 272Q162 220 174.50 177.50Q187 135 210.50 105Q234 75 266.50 58.50Q299 42 339 42Q381 42 417 60.50Q453 79 491 121L522 93M357 363Q377 363 389 364Q401 365 407 368Q413 371 415 376.50Q417 382 417 391Q417 437 387.50 464.50Q358 492 307 492Q199 492 173 363L357 363M172 709Q172 734 188.50 750.50Q205 767 230 767Q255 767 271.50 750.50Q288 734 288 709Q288 684 271.50 667.50Q255 651 230 651Q205 651 188.50 667.50Q172 684 172 709M339 709Q339 734 355.50 750.50Q372 767 397 767Q422 767 438.50 750.50Q455 734 455 709Q455 684 438.50 667.50Q422 651 397 651Q372 651 355.50 667.50Q339 684 339 709Z"  horiz-adv-x="573" vert-adv-y="1000"  />

      
      <glyph glyph-name="uni1E85" unicode="&#x1E85;" d="M278-10L241-10L111 406Q102 434 94 451Q86 468 75 478Q64 488 49 491.50Q34 495 12 495L12 530L277 530L277 495Q238 495 222 486Q206 477 206 455Q206 445 209 431.50Q212 418 217 398L285 159L289 159L436 530L467 530L600 159L604 159L664 321Q676 354 684 376.50Q692 399 696.50 414.50Q701 430 703 440Q705 450 705 459Q705 481 692 488Q679 495 638 495L638 530L838 530L838 495Q823 495 812.50 490.50Q802 486 791.50 473Q781 460 770 436Q759 412 743 373L588-10L551-10L429 359L425 359L278-10M310 709Q310 734 326.50 750.50Q343 767 368 767Q393 767 409.50 750.50Q426 734 426 709Q426 684 409.50 667.50Q393 651 368 651Q343 651 326.50 667.50Q310 684 310 709M477 709Q477 734 493.50 750.50Q510 767 535 767Q560 767 576.50 750.50Q593 734 593 709Q593 684 576.50 667.50Q560 651 535 651Q510 651 493.50 667.50Q477 684 477 709Z"  horiz-adv-x="852" vert-adv-y="1000"  />

      
      <glyph glyph-name="uniff" unicode="&#xff;" d="M281-157Q235-260 138-260Q75-260 75-213Q75-188 92.50-176.50Q110-165 157-157Q178-154 193-148.50Q208-143 220-134.50Q232-126 241.50-113Q251-100 260-81L295-11L103 406Q90 434 80.50 450.50Q71 467 60.50 476.50Q50 486 37 489.50Q24 493 4 495L4 530L269 530L269 495Q202 495 202 462Q202 449 210 421Q218 393 230 364L340 98L345 98L436 323Q449 356 457.50 377Q466 398 470.50 411.50Q475 425 476.50 434Q478 443 478 451Q478 477 463.50 486Q449 495 408 495L408 530L628 530L628 495Q609 495 596 490Q583 485 569.50 467.50Q556 450 539.50 417Q523 384 499 328L281-157M208 709Q208 734 224.50 750.50Q241 767 266 767Q291 767 307.50 750.50Q324 734 324 709Q324 684 307.50 667.50Q291 651 266 651Q241 651 224.50 667.50Q208 684 208 709M375 709Q375 734 391.50 750.50Q408 767 433 767Q458 767 474.50 750.50Q491 734 491 709Q491 684 474.50 667.50Q458 651 433 651Q408 651 391.50 667.50Q375 684 375 709Z"  horiz-adv-x="639" vert-adv-y="1000"  />

      
      <glyph glyph-name="unief" unicode="&#xef;" d="M228 162Q228 123 231.50 99Q235 75 245 61.50Q255 48 273 43Q291 38 321 37L321 0L34 0L34 37Q64 38 83 43.50Q102 49 112.50 61.50Q123 74 126.50 96.50Q130 119 130 154L130 278Q130 336 128.50 373Q127 410 123 424Q118 448 100 456.50Q82 465 32 465L32 502L228 540L228 162M39 709Q39 734 55.50 750.50Q72 767 97 767Q122 767 138.50 750.50Q155 734 155 709Q155 684 138.50 667.50Q122 651 97 651Q72 651 55.50 667.50Q39 684 39 709M206 709Q206 734 222.50 750.50Q239 767 264 767Q289 767 305.50 750.50Q322 734 322 709Q322 684 305.50 667.50Q289 651 264 651Q239 651 222.50 667.50Q206 684 206 709Z"  horiz-adv-x="341" vert-adv-y="1000"  />

      
      <glyph glyph-name="uni1ECB" unicode="&#x1ECB;" d="M228 159Q228 120 231.50 96.50Q235 73 245 59.50Q255 46 273 41Q291 36 321 35L321 0L34 0L34 35Q64 36 83 41.50Q102 47 112.50 59.50Q123 72 126.50 94.50Q130 117 130 152L130 280Q130 338 128.50 375.50Q127 413 123 427Q118 450 100 458.50Q82 467 32 467L32 502L228 540L228 159M113 743Q113 769 131 787Q149 805 175 805Q201 805 219 787Q237 769 237 743Q237 717 219 699Q201 681 175 681Q149 681 131 699Q113 717 113 743M117-168Q117-142 135-124Q153-106 179-106Q205-106 223-124Q241-142 241-168Q241-194 223-212Q205-230 179-230Q153-230 135-212Q117-194 117-168Z"  horiz-adv-x="341" vert-adv-y="1000"  />

      
      <glyph glyph-name="uni1EE5" unicode="&#x1EE5;" d="M463 370Q463 411 461 434.50Q459 458 450.50 470.50Q442 483 425.50 487.50Q409 492 380 495L380 530L561 530L561 223Q561 166 562.50 130Q564 94 567 76Q569 63 573.50 55.50Q578 48 587 43.50Q596 39 610.50 37.50Q625 36 648 36L648 1L483-11L472 109L468 109Q430 47 380.50 18.50Q331-10 277-10Q235-10 195.50 6Q156 22 136 49Q119 71 111.50 110Q104 149 104 211L104 370Q104 411 102 434.50Q100 458 91.50 470.50Q83 483 66.50 487.50Q50 492 21 495L21 530L202 530L202 257Q202 148 227.50 99Q253 50 309 50Q397 50 446 165Q451 177 454 187Q457 197 459 209Q461 221 462 236Q463 251 463 272L463 370M229-168Q229-142 247-124Q265-106 291-106Q317-106 335-124Q353-142 353-168Q353-194 335-212Q317-230 291-230Q265-230 247-212Q229-194 229-168Z"  horiz-adv-x="670" vert-adv-y="1000"  />

      
      <glyph glyph-name="uni1E25" unicode="&#x1E25;" d="M208 159Q208 118 210 94Q212 70 220.50 57.50Q229 45 245 41Q261 37 290 35L290 0L24 0L24 35Q53 37 70 41Q87 45 96 57Q105 69 107.50 91.50Q110 114 110 152L110 571Q110 630 108.50 665Q107 700 103 718Q101 730 96.50 737.50Q92 745 83 749.50Q74 754 59 756Q44 758 22 758L22 792L206 830L206 449L210 449Q225 469 247.50 485.50Q270 502 296 514Q322 526 350.50 533Q379 540 406 540Q452 540 490.50 524Q529 508 550 481Q567 458 575 420.50Q583 383 583 319L583 159Q583 118 585 94.50Q587 71 595.50 58Q604 45 620 41Q636 37 665 35L665 0L400 0L400 35Q428 36 445 40.50Q462 45 470.50 57Q479 69 481.50 91.50Q484 114 484 152L484 278Q484 390 458 437.50Q432 485 371 485Q324 485 285.50 461Q247 437 225 395Q220 384 216.50 374.50Q213 365 211 353Q209 341 208.50 325.50Q208 310 208 287L208 159M283-168Q283-142 301-124Q319-106 345-106Q371-106 389-124Q407-142 407-168Q407-194 389-212Q371-230 345-230Q319-230 301-212Q283-194 283-168Z"  horiz-adv-x="688" vert-adv-y="1000"  />

      
      <glyph glyph-name="uni1E5B" unicode="&#x1E5B;" d="M222 159Q222 118 224 94Q226 70 234.50 57.50Q243 45 259 41Q275 37 304 35L304 0L38 0L38 35Q67 36 84 40.50Q101 45 110 57Q119 69 121.50 91.50Q124 114 124 152L124 269Q124 337 122.50 375Q121 413 112.50 431Q104 449 86 452.50Q68 456 36 456L36 491L211 529L225 405L229 405Q242 435 261.50 460Q281 485 304 502.50Q327 520 352 530Q377 540 403 540Q435 540 453.50 524.50Q472 509 472 483Q472 459 457 445.50Q442 432 414 432Q398 432 387 436Q376 440 367.50 444.50Q359 449 351.50 453Q344 457 335 457Q308 457 281 422.50Q254 388 239 335Q231 306 226.50 269.50Q222 233 222 193L222 159M113-168Q113-142 131-124Q149-106 175-106Q201-106 219-124Q237-142 237-168Q237-194 219-212Q201-230 175-230Q149-230 131-212Q113-194 113-168Z"  horiz-adv-x="477" vert-adv-y="1000"  />

      
      <glyph glyph-name="uni1ECD" unicode="&#x1ECD;" d="M325 540Q382 540 433 519.50Q484 499 522.50 463Q561 427 583.50 377.50Q606 328 606 269Q606 208 583.50 157Q561 106 522.50 69Q484 32 433 11Q382-10 325-10Q269-10 218.50 10.50Q168 31 130 68Q92 105 70 156.50Q48 208 48 269Q48 328 70 378Q92 428 130 464Q168 500 218.50 520Q269 540 325 540M325 492Q288 492 257.50 476Q227 460 205.50 430.50Q184 401 172.50 359.50Q161 318 161 268Q161 216 172.50 174Q184 132 205.50 102.50Q227 73 257 57Q287 41 325 41Q363 41 394 57Q425 73 447 103Q469 133 481 175Q493 217 493 268Q493 318 481 359Q469 400 447 429.50Q425 459 394 475.50Q363 492 325 492M263-168Q263-142 281-124Q299-106 325-106Q351-106 369-124Q387-142 387-168Q387-194 369-212Q351-230 325-230Q299-230 281-212Q263-194 263-168Z"  horiz-adv-x="654" vert-adv-y="1000"  />

      
      <glyph glyph-name="uni1E0D" unicode="&#x1E0D;" d="M484 84L480 84Q444 33 403.50 11.50Q363-10 308-10Q251-10 203.50 10.50Q156 31 121.50 67.50Q87 104 67.50 155Q48 206 48 266Q48 325 67.50 375.50Q87 426 121.50 462.50Q156 499 204 519.50Q252 540 308 540Q356 540 393.50 524Q431 508 466 473L466 575Q466 632 464.50 670Q463 708 460 722Q455 744 432 753Q409 762 357 762L357 792L562 830L562 253Q562 184 563 139.50Q564 95 569 76Q572 64 576.50 56Q581 48 589.50 43.50Q598 39 612.50 37Q627 35 650 35L650 1L484-10L484 84M464 305Q464 357 458.50 384Q453 411 437 431Q414 461 378.50 476.50Q343 492 308 492Q236 492 198.50 432.50Q161 373 161 271Q161 218 170.50 175Q180 132 198.50 101.50Q217 71 244.50 54.50Q272 38 308 38Q326 38 344.50 42Q363 46 380.50 54.50Q398 63 413 74.50Q428 86 438 101Q452 123 458 154Q464 185 464 239L464 305M246-168Q246-142 264-124Q282-106 308-106Q334-106 352-124Q370-142 370-168Q370-194 352-212Q334-230 308-230Q282-230 264-212Q246-194 246-168Z"  horiz-adv-x="675" vert-adv-y="1000"  />

      
      <glyph glyph-name="uni1EB9" unicode="&#x1EB9;" d="M522 93Q437-10 311-10Q252-10 204 9.50Q156 29 121.50 64.50Q87 100 68 149.50Q49 199 49 259Q49 320 69 372Q89 424 125.50 461Q162 498 212.50 519Q263 540 323 540Q420 540 473 487.50Q526 435 526 337Q526 323 520.50 320Q515 317 495 317L166 317Q164 309 163 297.50Q162 286 162 272Q162 220 174.50 177.50Q187 135 210.50 105Q234 75 266.50 58.50Q299 42 339 42Q381 42 417 60.50Q453 79 491 121L522 93M357 363Q377 363 389 364Q401 365 407 368Q413 371 415 376.50Q417 382 417 391Q417 437 387.50 464.50Q358 492 307 492Q199 492 173 363L357 363M250-168Q250-142 268-124Q286-106 312-106Q338-106 356-124Q374-142 374-168Q374-194 356-212Q338-230 312-230Q286-230 268-212Q250-194 250-168Z"  horiz-adv-x="573" vert-adv-y="1000"  />

      
      <glyph glyph-name="uni1E63" unicode="&#x1E63;" d="M86 0L64 0L64 172L89 172Q128 31 231 31Q271 31 294.50 50.50Q318 70 318 110Q318 125 313.50 135.50Q309 146 296.50 157.50Q284 169 261.50 184Q239 199 202 222Q168 243 143 261Q118 279 101 297.50Q84 316 75.50 337Q67 358 67 386Q67 420 78.50 448.50Q90 477 110 497Q130 517 157 528.50Q184 540 216 540Q243 540 272 531.50Q301 523 323 509L343 530L362 530L362 386L336 386Q314 447 288 473Q262 499 224 499Q190 499 169.50 481Q149 463 149 431Q149 414 154.50 401.50Q160 389 172 377Q184 365 202.50 352.50Q221 340 247 324Q290 297 320.50 276Q351 255 370 234.50Q389 214 398 192Q407 170 407 142Q407 71 361 30.50Q315-10 240-10Q162-10 106 35L86 0M178-167Q178-141 196-123Q214-105 240-105Q266-105 284-123Q302-141 302-167Q302-193 284-211Q266-229 240-229Q214-229 196-211Q178-193 178-167Z"  horiz-adv-x="454" vert-adv-y="1000"  />

      
      <glyph glyph-name="uni1E6D" unicode="&#x1E6D;" d="M40 467L40 504Q93 535 123 566Q153 597 169 640L198 640L198 514L332 514L332 467L198 467L198 163Q198 128 201.50 104Q205 80 213 65.50Q221 51 234 45Q247 39 267 39Q292 39 309.50 49.50Q327 60 344 85L369 66Q355 29 320.50 9.50Q286-10 235-10Q169-10 134.50 21.50Q100 53 100 112L100 467L40 467M173-168Q173-142 191-124Q209-106 235-106Q261-106 279-124Q297-142 297-168Q297-194 279-212Q261-230 235-230Q209-230 191-212Q173-194 173-168Z"  horiz-adv-x="378" vert-adv-y="1000"  />

      
      <glyph glyph-name="uni1E93" unicode="&#x1E93;" d="M498 0L18 0L18 4L364 488L253 488Q210 488 182.50 484.50Q155 481 137.50 470.50Q120 460 111 441.50Q102 423 97 392L65 392L81 530L511 530L511 526L170 46L287 46Q338 46 371.50 50Q405 54 426.50 66Q448 78 460.50 99Q473 120 482 155L515 155L498 0M213-168Q213-142 231-124Q249-106 275-106Q301-106 319-124Q337-142 337-168Q337-194 319-212Q301-230 275-230Q249-230 231-212Q213-194 213-168Z"  horiz-adv-x="557" vert-adv-y="1000"  />

      
      <glyph glyph-name="uni1ECA" unicode="&#x1ECA;" d="M260 189Q260 139 264 110Q268 81 279.50 65Q291 49 312.50 44Q334 39 369 38L369 0L45 0L45 38Q80 39 101.50 44.50Q123 50 135 65Q147 80 151 107.50Q155 135 155 182L155 588Q155 630 151.50 657.50Q148 685 137.50 701Q127 717 107 723.50Q87 730 55 732L55 770L359 770L359 732Q327 731 307.50 724Q288 717 277.50 700.50Q267 684 263.50 655Q260 626 260 581L260 189M144-168Q144-142 162-124Q180-106 206-106Q232-106 250-124Q268-142 268-168Q268-194 250-212Q232-230 206-230Q180-230 162-212Q144-194 144-168Z"  horiz-adv-x="415" vert-adv-y="1000"  />

      
      <glyph glyph-name="uni1E24" unicode="&#x1E24;" d="M770 159Q770 121 774 97.50Q778 74 789.50 61.50Q801 49 822.50 44Q844 39 879 38L879 0L555 0L555 38Q590 39 611.50 44Q633 49 645 61Q657 73 661 95Q665 117 665 152L665 369L260 369L260 159Q260 121 264 97.50Q268 74 279.50 61.50Q291 49 312.50 44Q334 39 369 38L369 0L45 0L45 38Q80 39 101.50 44Q123 49 135 61Q147 73 151 95Q155 117 155 152L155 618Q155 653 151.50 674.50Q148 696 137.50 708.50Q127 721 107 725.50Q87 730 55 732L55 770L359 770L359 732Q327 731 307.50 726Q288 721 277.50 708Q267 695 263.50 672Q260 649 260 611L260 419L665 419L665 618Q665 653 661.50 674.50Q658 696 647.50 708.50Q637 721 617 725.50Q597 730 565 732L565 770L869 770L869 732Q837 731 817.50 726Q798 721 787.50 708Q777 695 773.50 672Q770 649 770 611L770 159M402-168Q402-142 420-124Q438-106 464-106Q490-106 508-124Q526-142 526-168Q526-194 508-212Q490-230 464-230Q438-230 420-212Q402-194 402-168Z"  horiz-adv-x="925" vert-adv-y="1000"  />

      
      <glyph glyph-name="uni1EB8" unicode="&#x1EB8;" d="M260 423Q314 423 350.50 429.50Q387 436 408.50 450Q430 464 439.50 486Q449 508 449 538L484 538L484 265L449 265Q449 295 440.50 317Q432 339 410.50 353.50Q389 368 352.50 375.50Q316 383 260 383L260 157Q260 124 268 102.50Q276 81 295.50 67.50Q315 54 347 48.50Q379 43 426 43Q479 43 516 50.50Q553 58 578 76Q603 94 618 123.50Q633 153 643 197L681 197L666 0L45 0L45 38Q80 39 101.50 44Q123 49 135 61Q147 73 151 95Q155 117 155 152L155 618Q155 653 151.50 674.50Q148 696 137.50 708.50Q127 721 107 725.50Q87 730 55 732L55 770L633 770L642 594L607 594Q601 634 587.50 659.50Q574 685 550.50 700Q527 715 491 721Q455 727 404 727L277 727Q260 727 260 710L260 423M317-168Q317-142 335-124Q353-106 379-106Q405-106 423-124Q441-142 441-168Q441-194 423-212Q405-230 379-230Q353-230 335-212Q317-194 317-168Z"  horiz-adv-x="726" vert-adv-y="1000"  />

      
      <glyph glyph-name="uni1ECC" unicode="&#x1ECC;" d="M473 780Q561 780 637 749Q713 718 769 664Q825 610 857 537Q889 464 889 379Q889 298 856.50 227Q824 156 768 103.50Q712 51 636 20.50Q560-10 473-10Q386-10 310 20.50Q234 51 178 103.50Q122 156 89.50 227Q57 298 57 379Q57 464 89 537Q121 610 177 664Q233 718 309 749Q385 780 473 780M473 45Q539 45 591.50 68Q644 91 681.50 134Q719 177 739 238.50Q759 300 759 376Q759 456 739 520.50Q719 585 682 630.50Q645 676 592 700.50Q539 725 473 725Q407 725 354 700.50Q301 676 264 630.50Q227 585 207 520.50Q187 456 187 376Q187 300 207 238.50Q227 177 264 134Q301 91 354 68Q407 45 473 45M412-168Q412-142 430-124Q448-106 474-106Q500-106 518-124Q536-142 536-168Q536-194 518-212Q500-230 474-230Q448-230 430-212Q412-194 412-168Z"  horiz-adv-x="946" vert-adv-y="1000"  />

      
      <glyph glyph-name="uni1E0C" unicode="&#x1E0C;" d="M38 0L38 38Q76 39 99.50 43.50Q123 48 136 60.50Q149 73 153.50 94.50Q158 116 158 152L158 618Q158 653 154.50 674.50Q151 696 140.50 708.50Q130 721 110 725.50Q90 730 58 732L58 770L409 770Q499 770 575.50 740Q652 710 707.50 657Q763 604 794 531Q825 458 825 372Q825 290 796 221.50Q767 153 714.50 104Q662 55 589 27.50Q516 0 429 0L38 0M280 721Q263 721 263 704L263 163Q263 49 412 49Q549 49 622 130.50Q695 212 695 370Q695 453 675 518Q655 583 617.50 628Q580 673 527 697Q474 721 407 721L280 721M379-168Q379-142 397-124Q415-106 441-106Q467-106 485-124Q503-142 503-168Q503-194 485-212Q467-230 441-230Q415-230 397-212Q379-194 379-168Z"  horiz-adv-x="884" vert-adv-y="1000"  />

      
      <glyph glyph-name="uni1E5A" unicode="&#x1E5A;" d="M658 577Q658 497 610 444Q562 391 457 373L678 107Q705 74 737.50 59.50Q770 45 815 38L815 0L622 0L377 314Q364 331 352.50 341Q341 351 328.50 356.50Q316 362 299.50 363.50Q283 365 260 365L260 157Q260 120 264.50 96.50Q269 73 283.50 60Q298 47 325.50 42.50Q353 38 398 38L398 0L45 0L45 38Q80 39 101.50 44Q123 49 135 61Q147 73 151 95Q155 117 155 152L155 618Q155 653 151.50 674.50Q148 696 137.50 708.50Q127 721 107 725.50Q87 730 55 732L55 770L369 770Q507 770 582.50 719Q658 668 658 577M260 415L331 415Q431 415 479.50 451.50Q528 488 528 572Q528 653 489.50 688Q451 723 369 723L277 723Q260 723 260 706L260 415M350-168Q350-142 368-124Q386-106 412-106Q438-106 456-124Q474-142 474-168Q474-194 456-212Q438-230 412-230Q386-230 368-212Q350-194 350-168Z"  horiz-adv-x="788" vert-adv-y="1000"  />

      
      <glyph glyph-name="uni1E62" unicode="&#x1E62;" d="M58 235L95 235Q102 190 121.50 154Q141 118 170.50 93Q200 68 238.50 54.50Q277 41 322 41Q396 41 439 76Q482 111 482 171Q482 196 473.50 217Q465 238 445 257.50Q425 277 391.50 296Q358 315 307 337Q245 364 203 389Q161 414 136 441Q111 468 100.50 498.50Q90 529 90 568Q90 614 106.50 653Q123 692 153 720.50Q183 749 224 764.50Q265 780 314 780Q358 780 396 766Q434 752 473 721L499 766L522 766L533 567L496 567Q472 649 426.50 689Q381 729 317 729Q256 729 220 699Q184 669 184 618Q184 594 192 574.50Q200 555 218 537.50Q236 520 265 502.50Q294 485 337 466Q411 433 460 404.50Q509 376 538 347.50Q567 319 579 287.50Q591 256 591 217Q591 167 571 125Q551 83 515 53Q479 23 429 6.50Q379-10 319-10Q262-10 216.50 6Q171 22 124 60L96 11L73 11L58 235M256-168Q256-142 274-124Q292-106 318-106Q344-106 362-124Q380-142 380-168Q380-194 362-212Q344-230 318-230Q292-230 274-212Q256-194 256-168Z"  horiz-adv-x="645" vert-adv-y="1000"  />

      
      <glyph glyph-name="uni1E6C" unicode="&#x1E6C;" d="M786 579L745 579Q742 622 731 651Q720 680 699.50 696.50Q679 713 648 720Q617 727 574 727Q537 727 514.50 725.50Q492 724 480 720Q468 716 464.50 710.50Q461 705 461 696L461 161Q461 129 465.50 106Q470 83 483.50 68.50Q497 54 522.50 46.50Q548 39 590 38L590 0L212 0L212 38Q254 39 280 46.50Q306 54 319.50 68.50Q333 83 337.50 106Q342 129 342 161L342 696Q342 705 338.50 710.50Q335 716 324.50 720Q314 724 295 725.50Q276 727 244 727Q205 727 171.50 724Q138 721 113.50 706.50Q89 692 74 662Q59 632 58 579L21 579L21 770L776 770L786 579M340-168Q340-142 358-124Q376-106 402-106Q428-106 446-124Q464-142 464-168Q464-194 446-212Q428-230 402-230Q376-230 358-212Q340-194 340-168Z"  horiz-adv-x="803" vert-adv-y="1000"  />

      
      <glyph glyph-name="uni1EE4" unicode="&#x1EE4;" d="M722 310Q722 231 706.50 171Q691 111 656.50 71Q622 31 567 10.50Q512-10 434-10Q360-10 305 4.50Q250 19 213 52.50Q176 86 158 140Q140 194 140 273L140 537Q140 611 136.50 651Q133 691 116 710Q104 723 83.50 727.50Q63 732 29 732L29 770L370 770L370 732Q336 732 315 728Q294 724 282 708Q268 690 264 650.50Q260 611 260 537L260 265Q260 214 270.50 174.50Q281 135 305 107.50Q329 80 367.50 66Q406 52 462 52Q562 52 612 107.50Q662 163 662 271L662 512Q662 601 655 647Q648 693 629 712Q615 725 594 728.50Q573 732 542 732L542 770L832 770L832 732Q800 732 779.50 727Q759 722 747 705Q732 684 727 639.50Q722 595 722 512L722 310M390-168Q390-142 408-124Q426-106 452-106Q478-106 496-124Q514-142 514-168Q514-194 496-212Q478-230 452-230Q426-230 408-212Q390-194 390-168Z"  horiz-adv-x="861" vert-adv-y="1000"  />

      
      <glyph glyph-name="uni1E92" unicode="&#x1E92;" d="M710 0L16 0L16 4L542 728L268 728Q197 728 162 696Q127 664 113 586L76 586L91 770L700 770L700 766L179 46L489 46Q540 46 573 53.50Q606 61 626.50 82Q647 103 658.50 139.50Q670 176 679 235L722 235L710 0M325-168Q325-142 343-124Q361-106 387-106Q413-106 431-124Q449-142 449-168Q449-194 431-212Q413-230 387-230Q361-230 343-212Q325-194 325-168Z"  horiz-adv-x="770" vert-adv-y="1000"  />

      
      <glyph glyph-name="uni2e" unicode="&#x2e;" d="M67 55Q67 83 86 102Q105 121 132 121Q160 121 179 102Q198 83 198 55Q198 28 179 9Q160-10 132-10Q105-10 86 9Q67 28 67 55Z"  horiz-adv-x="265" vert-adv-y="1000"  />

      
      <glyph glyph-name="uni3a" unicode="&#x3a;" d="M77 55Q77 83 96 102Q115 121 142 121Q170 121 189 102Q208 83 208 55Q208 28 189 9Q170-10 142-10Q115-10 96 9Q77 28 77 55M77 381Q77 409 96 428Q115 447 142 447Q170 447 189 428Q208 409 208 381Q208 354 189 335Q170 316 142 316Q115 316 96 335Q77 354 77 381Z"  horiz-adv-x="285" vert-adv-y="1000"  />

      
      <glyph glyph-name="uni3b" unicode="&#x3b;" d="M89 381Q89 409 108 428Q127 447 154 447Q182 447 201 428Q220 409 220 381Q220 354 201 335Q182 316 154 316Q127 316 108 335Q89 354 89 381M71-143Q125-105 148-70Q171-35 171 8Q158 0 141 0Q118 0 103.50 16.50Q89 33 89 59Q89 87 107.50 104Q126 121 156 121Q228 121 228 21Q228-7 221-31Q214-55 198.50-78Q183-101 157-124.50Q131-148 94-175L71-143Z"  horiz-adv-x="311" vert-adv-y="1000"  />

      
      <glyph glyph-name="unib4" unicode="&#xb4;" d="M20 651L150 770Q186 803 217 803Q234 803 244.50 794Q255 785 255 768Q255 752 241.50 739.50Q228 727 204 716L67 651L20 651Z"  horiz-adv-x="275" vert-adv-y="1000"  />

      
      <glyph glyph-name="unie1" unicode="&#xe1;" d="M349 296Q292 274 252.50 253Q213 232 189 211Q165 190 154.50 169Q144 148 144 126Q144 93 166 72Q188 51 224 51Q250 51 272.50 64Q295 77 312 99.50Q329 122 339 152.50Q349 183 349 217L349 296M349 339L349 380Q349 502 245 502Q228 502 216 499Q204 496 196 489Q188 482 181.50 469Q175 456 169 437Q158 408 147.50 398.50Q137 389 117 389Q67 389 67 439Q67 487 118 513.50Q169 540 263 540Q363 540 405 504.50Q447 469 447 384L447 160Q447 46 492 46Q506 46 519 49.50Q532 53 541 68L555 44Q543 21 511 5.50Q479-10 444-10Q400-10 378.50 18Q357 46 357 97L352 97Q326 48 280 19.50Q234-9 178-9Q115-9 79 23Q43 55 43 109Q43 133 51.50 155Q60 177 79 197Q98 217 129 236.50Q160 256 205 276L349 339M175 651L305 770Q341 803 372 803Q389 803 399.50 794Q410 785 410 768Q410 752 396.50 739.50Q383 727 359 716L222 651L175 651Z"  horiz-adv-x="554" vert-adv-y="1000"  />

      
      <glyph glyph-name="uni0144" unicode="&#x0144;" d="M216 157Q216 116 218 92.50Q220 69 228.50 56.50Q237 44 253.50 40Q270 36 299 34L299 0L37 0L37 34Q65 36 81.50 40Q98 44 107 56Q116 68 118.50 90Q121 112 121 150L121 283Q121 402 115 428Q112 441 107.50 449.50Q103 458 94 462.50Q85 467 71 468.50Q57 470 35 470L35 502L195 540L207 441L211 441Q249 488 300 514Q351 540 411 540Q457 540 495 525Q533 510 553 484Q570 461 577 424.50Q584 388 584 324L584 157Q584 116 586.50 92.50Q589 69 597 56.50Q605 44 621.50 40Q638 36 665 34L665 0L406 0L406 34Q434 35 450.50 39.50Q467 44 475.50 56Q484 68 486.50 90.50Q489 113 489 150L489 282Q489 339 483 378Q477 417 463.50 441Q450 465 428 475.50Q406 486 375 486Q330 486 292.50 462.50Q255 439 234 398Q229 388 225.50 379Q222 370 220 358Q218 346 217 330.50Q216 315 216 291L216 157M263 651L393 770Q429 803 460 803Q477 803 487.50 794Q498 785 498 768Q498 752 484.50 739.50Q471 727 447 716L310 651L263 651Z"  horiz-adv-x="689" vert-adv-y="1000"  />

      
      <glyph glyph-name="unifa" unicode="&#xfa;" d="M463 370Q463 411 461 434.50Q459 458 450.50 470.50Q442 483 425.50 487.50Q409 492 380 495L380 530L561 530L561 223Q561 166 562.50 130Q564 94 567 76Q569 63 573.50 55.50Q578 48 587 43.50Q596 39 610.50 37.50Q625 36 648 36L648 1L483-11L472 109L468 109Q430 47 380.50 18.50Q331-10 277-10Q235-10 195.50 6Q156 22 136 49Q119 71 111.50 110Q104 149 104 211L104 370Q104 411 102 434.50Q100 458 91.50 470.50Q83 483 66.50 487.50Q50 492 21 495L21 530L202 530L202 257Q202 148 227.50 99Q253 50 309 50Q397 50 446 165Q451 177 454 187Q457 197 459 209Q461 221 462 236Q463 251 463 272L463 370M223 651L353 770Q389 803 420 803Q437 803 447.50 794Q458 785 458 768Q458 752 444.50 739.50Q431 727 407 716L270 651L223 651Z"  horiz-adv-x="670" vert-adv-y="1000"  />

      
      <glyph glyph-name="uni0155" unicode="&#x0155;" d="M222 159Q222 118 224 94Q226 70 234.50 57.50Q243 45 259 41Q275 37 304 35L304 0L38 0L38 35Q67 36 84 40.50Q101 45 110 57Q119 69 121.50 91.50Q124 114 124 152L124 269Q124 337 122.50 375Q121 413 112.50 431Q104 449 86 452.50Q68 456 36 456L36 491L211 529L225 405L229 405Q242 435 261.50 460Q281 485 304 502.50Q327 520 352 530Q377 540 403 540Q435 540 453.50 524.50Q472 509 472 483Q472 459 457 445.50Q442 432 414 432Q398 432 387 436Q376 440 367.50 444.50Q359 449 351.50 453Q344 457 335 457Q308 457 281 422.50Q254 388 239 335Q231 306 226.50 269.50Q222 233 222 193L222 159M180 651L310 770Q346 803 377 803Q394 803 404.50 794Q415 785 415 768Q415 752 401.50 739.50Q388 727 364 716L227 651L180 651Z"  horiz-adv-x="477" vert-adv-y="1000"  />

      
      <glyph glyph-name="unif3" unicode="&#xf3;" d="M325 540Q382 540 433 519.50Q484 499 522.50 463Q561 427 583.50 377.50Q606 328 606 269Q606 208 583.50 157Q561 106 522.50 69Q484 32 433 11Q382-10 325-10Q269-10 218.50 10.50Q168 31 130 68Q92 105 70 156.50Q48 208 48 269Q48 328 70 378Q92 428 130 464Q168 500 218.50 520Q269 540 325 540M325 492Q288 492 257.50 476Q227 460 205.50 430.50Q184 401 172.50 359.50Q161 318 161 268Q161 216 172.50 174Q184 132 205.50 102.50Q227 73 257 57Q287 41 325 41Q363 41 394 57Q425 73 447 103Q469 133 481 175Q493 217 493 268Q493 318 481 359Q469 400 447 429.50Q425 459 394 475.50Q363 492 325 492M235 651L365 770Q401 803 432 803Q449 803 459.50 794Q470 785 470 768Q470 752 456.50 739.50Q443 727 419 716L282 651L235 651Z"  horiz-adv-x="654" vert-adv-y="1000"  />

      
      <glyph glyph-name="uni0107" unicode="&#x0107;" d="M506 83Q470 39 413 14.50Q356-10 290-10Q237-10 192.50 9.50Q148 29 116 64.50Q84 100 66.50 150Q49 200 49 261Q49 325 69 376.50Q89 428 125.50 464.50Q162 501 213.50 520.50Q265 540 327 540Q366 540 398 533.50Q430 527 453.50 515.50Q477 504 490 487.50Q503 471 503 452Q503 432 490 421Q477 410 454 410Q436 410 424 417.50Q412 425 393 451Q373 474 354.50 483.50Q336 493 307 493Q236 493 199.50 438Q163 383 163 276Q163 161 203.50 101.50Q244 42 322 42Q364 42 401 58.50Q438 75 476 112L506 83M252 651L382 770Q418 803 449 803Q466 803 476.50 794Q487 785 487 768Q487 752 473.50 739.50Q460 727 436 716L299 651L252 651Z"  horiz-adv-x="536" vert-adv-y="1000"  />

      
      <glyph glyph-name="unie9" unicode="&#xe9;" d="M522 93Q437-10 311-10Q252-10 204 9.50Q156 29 121.50 64.50Q87 100 68 149.50Q49 199 49 259Q49 320 69 372Q89 424 125.50 461Q162 498 212.50 519Q263 540 323 540Q420 540 473 487.50Q526 435 526 337Q526 323 520.50 320Q515 317 495 317L166 317Q164 309 163 297.50Q162 286 162 272Q162 220 174.50 177.50Q187 135 210.50 105Q234 75 266.50 58.50Q299 42 339 42Q381 42 417 60.50Q453 79 491 121L522 93M357 363Q377 363 389 364Q401 365 407 368Q413 371 415 376.50Q417 382 417 391Q417 437 387.50 464.50Q358 492 307 492Q199 492 173 363L357 363M240 651L370 770Q406 803 437 803Q454 803 464.50 794Q475 785 475 768Q475 752 461.50 739.50Q448 727 424 716L287 651L240 651Z"  horiz-adv-x="573" vert-adv-y="1000"  />

      
      <glyph glyph-name="uni015B" unicode="&#x015B;" d="M86 0L64 0L64 172L89 172Q128 31 231 31Q271 31 294.50 50.50Q318 70 318 110Q318 125 313.50 135.50Q309 146 296.50 157.50Q284 169 261.50 184Q239 199 202 222Q168 243 143 261Q118 279 101 297.50Q84 316 75.50 337Q67 358 67 386Q67 420 78.50 448.50Q90 477 110 497Q130 517 157 528.50Q184 540 216 540Q243 540 272 531.50Q301 523 323 509L343 530L362 530L362 386L336 386Q314 447 288 473Q262 499 224 499Q190 499 169.50 481Q149 463 149 431Q149 414 154.50 401.50Q160 389 172 377Q184 365 202.50 352.50Q221 340 247 324Q290 297 320.50 276Q351 255 370 234.50Q389 214 398 192Q407 170 407 142Q407 71 361 30.50Q315-10 240-10Q162-10 106 35L86 0M148 651L278 770Q314 803 345 803Q362 803 372.50 794Q383 785 383 768Q383 752 369.50 739.50Q356 727 332 716L195 651L148 651Z"  horiz-adv-x="454" vert-adv-y="1000"  />

      
      <glyph glyph-name="uni1E83" unicode="&#x1E83;" d="M278-10L241-10L111 406Q102 434 94 451Q86 468 75 478Q64 488 49 491.50Q34 495 12 495L12 530L277 530L277 495Q238 495 222 486Q206 477 206 455Q206 445 209 431.50Q212 418 217 398L285 159L289 159L436 530L467 530L600 159L604 159L664 321Q676 354 684 376.50Q692 399 696.50 414.50Q701 430 703 440Q705 450 705 459Q705 481 692 488Q679 495 638 495L638 530L838 530L838 495Q823 495 812.50 490.50Q802 486 791.50 473Q781 460 770 436Q759 412 743 373L588-10L551-10L429 359L425 359L278-10M361 651L491 770Q527 803 558 803Q575 803 585.50 794Q596 785 596 768Q596 752 582.50 739.50Q569 727 545 716L408 651L361 651Z"  horiz-adv-x="852" vert-adv-y="1000"  />

      
      <glyph glyph-name="unifd" unicode="&#xfd;" d="M281-157Q235-260 138-260Q75-260 75-213Q75-188 92.50-176.50Q110-165 157-157Q178-154 193-148.50Q208-143 220-134.50Q232-126 241.50-113Q251-100 260-81L295-11L103 406Q90 434 80.50 450.50Q71 467 60.50 476.50Q50 486 37 489.50Q24 493 4 495L4 530L269 530L269 495Q202 495 202 462Q202 449 210 421Q218 393 230 364L340 98L345 98L436 323Q449 356 457.50 377Q466 398 470.50 411.50Q475 425 476.50 434Q478 443 478 451Q478 477 463.50 486Q449 495 408 495L408 530L628 530L628 495Q609 495 596 490Q583 485 569.50 467.50Q556 450 539.50 417Q523 384 499 328L281-157M259 651L389 770Q425 803 456 803Q473 803 483.50 794Q494 785 494 768Q494 752 480.50 739.50Q467 727 443 716L306 651L259 651Z"  horiz-adv-x="639" vert-adv-y="1000"  />

      
      <glyph glyph-name="uni017A" unicode="&#x017A;" d="M498 0L18 0L18 4L364 488L253 488Q210 488 182.50 484.50Q155 481 137.50 470.50Q120 460 111 441.50Q102 423 97 392L65 392L81 530L511 530L511 526L170 46L287 46Q338 46 371.50 50Q405 54 426.50 66Q448 78 460.50 99Q473 120 482 155L515 155L498 0M197 651L327 770Q363 803 394 803Q411 803 421.50 794Q432 785 432 768Q432 752 418.50 739.50Q405 727 381 716L244 651L197 651Z"  horiz-adv-x="557" vert-adv-y="1000"  />

      
      <glyph glyph-name="unied" unicode="&#xed;" d="M228 162Q228 123 231.50 99Q235 75 245 61.50Q255 48 273 43Q291 38 321 37L321 0L34 0L34 37Q64 38 83 43.50Q102 49 112.50 61.50Q123 74 126.50 96.50Q130 119 130 154L130 278Q130 336 128.50 373Q127 410 123 424Q118 448 100 456.50Q82 465 32 465L32 502L228 540L228 162M90 651L220 770Q256 803 287 803Q304 803 314.50 794Q325 785 325 768Q325 752 311.50 739.50Q298 727 274 716L137 651L90 651Z"  horiz-adv-x="341" vert-adv-y="1000"  />

      
      <glyph glyph-name="uni60" unicode="&#x60;" d="M208 651L71 716Q47 727 33.50 739.50Q20 752 20 768Q20 785 30.50 794Q41 803 58 803Q89 803 125 770L255 651L208 651Z"  horiz-adv-x="275" vert-adv-y="1000"  />

      
      <glyph glyph-name="unie0" unicode="&#xe0;" d="M349 296Q292 274 252.50 253Q213 232 189 211Q165 190 154.50 169Q144 148 144 126Q144 93 166 72Q188 51 224 51Q250 51 272.50 64Q295 77 312 99.50Q329 122 339 152.50Q349 183 349 217L349 296M349 339L349 380Q349 502 245 502Q228 502 216 499Q204 496 196 489Q188 482 181.50 469Q175 456 169 437Q158 408 147.50 398.50Q137 389 117 389Q67 389 67 439Q67 487 118 513.50Q169 540 263 540Q363 540 405 504.50Q447 469 447 384L447 160Q447 46 492 46Q506 46 519 49.50Q532 53 541 68L555 44Q543 21 511 5.50Q479-10 444-10Q400-10 378.50 18Q357 46 357 97L352 97Q326 48 280 19.50Q234-9 178-9Q115-9 79 23Q43 55 43 109Q43 133 51.50 155Q60 177 79 197Q98 217 129 236.50Q160 256 205 276L349 339M318 651L181 716Q157 727 143.50 739.50Q130 752 130 768Q130 785 140.50 794Q151 803 168 803Q199 803 235 770L365 651L318 651Z"  horiz-adv-x="554" vert-adv-y="1000"  />

      
      <glyph glyph-name="unif9" unicode="&#xf9;" d="M463 370Q463 411 461 434.50Q459 458 450.50 470.50Q442 483 425.50 487.50Q409 492 380 495L380 530L561 530L561 223Q561 166 562.50 130Q564 94 567 76Q569 63 573.50 55.50Q578 48 587 43.50Q596 39 610.50 37.50Q625 36 648 36L648 1L483-11L472 109L468 109Q430 47 380.50 18.50Q331-10 277-10Q235-10 195.50 6Q156 22 136 49Q119 71 111.50 110Q104 149 104 211L104 370Q104 411 102 434.50Q100 458 91.50 470.50Q83 483 66.50 487.50Q50 492 21 495L21 530L202 530L202 257Q202 148 227.50 99Q253 50 309 50Q397 50 446 165Q451 177 454 187Q457 197 459 209Q461 221 462 236Q463 251 463 272L463 370M366 651L229 716Q205 727 191.50 739.50Q178 752 178 768Q178 785 188.50 794Q199 803 216 803Q247 803 283 770L413 651L366 651Z"  horiz-adv-x="670" vert-adv-y="1000"  />

      
      <glyph glyph-name="unif2" unicode="&#xf2;" d="M325 540Q382 540 433 519.50Q484 499 522.50 463Q561 427 583.50 377.50Q606 328 606 269Q606 208 583.50 157Q561 106 522.50 69Q484 32 433 11Q382-10 325-10Q269-10 218.50 10.50Q168 31 130 68Q92 105 70 156.50Q48 208 48 269Q48 328 70 378Q92 428 130 464Q168 500 218.50 520Q269 540 325 540M325 492Q288 492 257.50 476Q227 460 205.50 430.50Q184 401 172.50 359.50Q161 318 161 268Q161 216 172.50 174Q184 132 205.50 102.50Q227 73 257 57Q287 41 325 41Q363 41 394 57Q425 73 447 103Q469 133 481 175Q493 217 493 268Q493 318 481 359Q469 400 447 429.50Q425 459 394 475.50Q363 492 325 492M398 651L261 716Q237 727 223.50 739.50Q210 752 210 768Q210 785 220.50 794Q231 803 248 803Q279 803 315 770L445 651L398 651Z"  horiz-adv-x="654" vert-adv-y="1000"  />

      
      <glyph glyph-name="unie8" unicode="&#xe8;" d="M522 93Q437-10 311-10Q252-10 204 9.50Q156 29 121.50 64.50Q87 100 68 149.50Q49 199 49 259Q49 320 69 372Q89 424 125.50 461Q162 498 212.50 519Q263 540 323 540Q420 540 473 487.50Q526 435 526 337Q526 323 520.50 320Q515 317 495 317L166 317Q164 309 163 297.50Q162 286 162 272Q162 220 174.50 177.50Q187 135 210.50 105Q234 75 266.50 58.50Q299 42 339 42Q381 42 417 60.50Q453 79 491 121L522 93M357 363Q377 363 389 364Q401 365 407 368Q413 371 415 376.50Q417 382 417 391Q417 437 387.50 464.50Q358 492 307 492Q199 492 173 363L357 363M399 651L262 716Q238 727 224.50 739.50Q211 752 211 768Q211 785 221.50 794Q232 803 249 803Q280 803 316 770L446 651L399 651Z"  horiz-adv-x="573" vert-adv-y="1000"  />

      
      <glyph glyph-name="uni1E81" unicode="&#x1E81;" d="M278-10L241-10L111 406Q102 434 94 451Q86 468 75 478Q64 488 49 491.50Q34 495 12 495L12 530L277 530L277 495Q238 495 222 486Q206 477 206 455Q206 445 209 431.50Q212 418 217 398L285 159L289 159L436 530L467 530L600 159L604 159L664 321Q676 354 684 376.50Q692 399 696.50 414.50Q701 430 703 440Q705 450 705 459Q705 481 692 488Q679 495 638 495L638 530L838 530L838 495Q823 495 812.50 490.50Q802 486 791.50 473Q781 460 770 436Q759 412 743 373L588-10L551-10L429 359L425 359L278-10M504 651L367 716Q343 727 329.50 739.50Q316 752 316 768Q316 785 326.50 794Q337 803 354 803Q385 803 421 770L551 651L504 651Z"  horiz-adv-x="852" vert-adv-y="1000"  />

      
      <glyph glyph-name="uni1EF3" unicode="&#x1EF3;" d="M281-157Q235-260 138-260Q75-260 75-213Q75-188 92.50-176.50Q110-165 157-157Q178-154 193-148.50Q208-143 220-134.50Q232-126 241.50-113Q251-100 260-81L295-11L103 406Q90 434 80.50 450.50Q71 467 60.50 476.50Q50 486 37 489.50Q24 493 4 495L4 530L269 530L269 495Q202 495 202 462Q202 449 210 421Q218 393 230 364L340 98L345 98L436 323Q449 356 457.50 377Q466 398 470.50 411.50Q475 425 476.50 434Q478 443 478 451Q478 477 463.50 486Q449 495 408 495L408 530L628 530L628 495Q609 495 596 490Q583 485 569.50 467.50Q556 450 539.50 417Q523 384 499 328L281-157M402 651L265 716Q241 727 227.50 739.50Q214 752 214 768Q214 785 224.50 794Q235 803 252 803Q283 803 319 770L449 651L402 651Z"  horiz-adv-x="639" vert-adv-y="1000"  />

      
      <glyph glyph-name="uniec" unicode="&#xec;" d="M228 162Q228 123 231.50 99Q235 75 245 61.50Q255 48 273 43Q291 38 321 37L321 0L34 0L34 37Q64 38 83 43.50Q102 49 112.50 61.50Q123 74 126.50 96.50Q130 119 130 154L130 278Q130 336 128.50 373Q127 410 123 424Q118 448 100 456.50Q82 465 32 465L32 502L228 540L228 162M207 651L70 716Q46 727 32.50 739.50Q19 752 19 768Q19 785 29.50 794Q40 803 57 803Q88 803 124 770L254 651L207 651Z"  horiz-adv-x="341" vert-adv-y="1000"  />

      
      <glyph glyph-name="uni02DD" unicode="&#x02DD;" d="M20 651L150 770Q186 803 217 803Q234 803 244.50 794Q255 785 255 768Q255 752 241.50 739.50Q228 727 204 716L67 651L20 651M218 651L348 770Q384 803 415 803Q432 803 442.50 794Q453 785 453 768Q453 752 439.50 739.50Q426 727 402 716L265 651L218 651Z"  horiz-adv-x="473" vert-adv-y="1000"  />

      
      <glyph glyph-name="uni0171" unicode="&#x0171;" d="M463 370Q463 411 461 434.50Q459 458 450.50 470.50Q442 483 425.50 487.50Q409 492 380 495L380 530L561 530L561 223Q561 166 562.50 130Q564 94 567 76Q569 63 573.50 55.50Q578 48 587 43.50Q596 39 610.50 37.50Q625 36 648 36L648 1L483-11L472 109L468 109Q430 47 380.50 18.50Q331-10 277-10Q235-10 195.50 6Q156 22 136 49Q119 71 111.50 110Q104 149 104 211L104 370Q104 411 102 434.50Q100 458 91.50 470.50Q83 483 66.50 487.50Q50 492 21 495L21 530L202 530L202 257Q202 148 227.50 99Q253 50 309 50Q397 50 446 165Q451 177 454 187Q457 197 459 209Q461 221 462 236Q463 251 463 272L463 370M140 651L270 770Q306 803 337 803Q354 803 364.50 794Q375 785 375 768Q375 752 361.50 739.50Q348 727 324 716L187 651L140 651M338 651L468 770Q504 803 535 803Q552 803 562.50 794Q573 785 573 768Q573 752 559.50 739.50Q546 727 522 716L385 651L338 651Z"  horiz-adv-x="670" vert-adv-y="1000"  />

      
      <glyph glyph-name="uni0151" unicode="&#x0151;" d="M325 540Q382 540 433 519.50Q484 499 522.50 463Q561 427 583.50 377.50Q606 328 606 269Q606 208 583.50 157Q561 106 522.50 69Q484 32 433 11Q382-10 325-10Q269-10 218.50 10.50Q168 31 130 68Q92 105 70 156.50Q48 208 48 269Q48 328 70 378Q92 428 130 464Q168 500 218.50 520Q269 540 325 540M325 492Q288 492 257.50 476Q227 460 205.50 430.50Q184 401 172.50 359.50Q161 318 161 268Q161 216 172.50 174Q184 132 205.50 102.50Q227 73 257 57Q287 41 325 41Q363 41 394 57Q425 73 447 103Q469 133 481 175Q493 217 493 268Q493 318 481 359Q469 400 447 429.50Q425 459 394 475.50Q363 492 325 492M166 651L296 770Q332 803 363 803Q380 803 390.50 794Q401 785 401 768Q401 752 387.50 739.50Q374 727 350 716L213 651L166 651M364 651L494 770Q530 803 561 803Q578 803 588.50 794Q599 785 599 768Q599 752 585.50 739.50Q572 727 548 716L411 651L364 651Z"  horiz-adv-x="654" vert-adv-y="1000"  />

      
      <glyph glyph-name="uni02C6" unicode="&#x02C6;" d="M229 780L348 651L303 651L184 719L65 651L20 651L139 780L229 780Z"  horiz-adv-x="368" vert-adv-y="1000"  />

      
      <glyph glyph-name="uni02C7" unicode="&#x02C7;" d="M139 651L20 780L65 780L184 712L303 780L348 780L229 651L139 651Z"  horiz-adv-x="368" vert-adv-y="1000"  />

      
      <glyph glyph-name="unie2" unicode="&#xe2;" d="M349 296Q292 274 252.50 253Q213 232 189 211Q165 190 154.50 169Q144 148 144 126Q144 93 166 72Q188 51 224 51Q250 51 272.50 64Q295 77 312 99.50Q329 122 339 152.50Q349 183 349 217L349 296M349 339L349 380Q349 502 245 502Q228 502 216 499Q204 496 196 489Q188 482 181.50 469Q175 456 169 437Q158 408 147.50 398.50Q137 389 117 389Q67 389 67 439Q67 487 118 513.50Q169 540 263 540Q363 540 405 504.50Q447 469 447 384L447 160Q447 46 492 46Q506 46 519 49.50Q532 53 541 68L555 44Q543 21 511 5.50Q479-10 444-10Q400-10 378.50 18Q357 46 357 97L352 97Q326 48 280 19.50Q234-9 178-9Q115-9 79 23Q43 55 43 109Q43 133 51.50 155Q60 177 79 197Q98 217 129 236.50Q160 256 205 276L349 339M310 780L429 651L384 651L265 719L146 651L101 651L220 780L310 780Z"  horiz-adv-x="554" vert-adv-y="1000"  />

      
      <glyph glyph-name="unifb" unicode="&#xfb;" d="M463 370Q463 411 461 434.50Q459 458 450.50 470.50Q442 483 425.50 487.50Q409 492 380 495L380 530L561 530L561 223Q561 166 562.50 130Q564 94 567 76Q569 63 573.50 55.50Q578 48 587 43.50Q596 39 610.50 37.50Q625 36 648 36L648 1L483-11L472 109L468 109Q430 47 380.50 18.50Q331-10 277-10Q235-10 195.50 6Q156 22 136 49Q119 71 111.50 110Q104 149 104 211L104 370Q104 411 102 434.50Q100 458 91.50 470.50Q83 483 66.50 487.50Q50 492 21 495L21 530L202 530L202 257Q202 148 227.50 99Q253 50 309 50Q397 50 446 165Q451 177 454 187Q457 197 459 209Q461 221 462 236Q463 251 463 272L463 370M358 780L477 651L432 651L313 719L194 651L149 651L268 780L358 780Z"  horiz-adv-x="670" vert-adv-y="1000"  />

      
      <glyph glyph-name="uni0125" unicode="&#x0125;" d="M208 159Q208 118 210 94Q212 70 220.50 57.50Q229 45 245 41Q261 37 290 35L290 0L24 0L24 35Q53 37 70 41Q87 45 96 57Q105 69 107.50 91.50Q110 114 110 152L110 571Q110 630 108.50 665Q107 700 103 718Q101 730 96.50 737.50Q92 745 83 749.50Q74 754 59 756Q44 758 22 758L22 792L206 830L206 449L210 449Q225 469 247.50 485.50Q270 502 296 514Q322 526 350.50 533Q379 540 406 540Q452 540 490.50 524Q529 508 550 481Q567 458 575 420.50Q583 383 583 319L583 159Q583 118 585 94.50Q587 71 595.50 58Q604 45 620 41Q636 37 665 35L665 0L400 0L400 35Q428 36 445 40.50Q462 45 470.50 57Q479 69 481.50 91.50Q484 114 484 152L484 278Q484 390 458 437.50Q432 485 371 485Q324 485 285.50 461Q247 437 225 395Q220 384 216.50 374.50Q213 365 211 353Q209 341 208.50 325.50Q208 310 208 287L208 159M431 780L550 651L505 651L386 719L267 651L222 651L341 780L431 780Z"  horiz-adv-x="688" vert-adv-y="1000"  />

      
      <glyph glyph-name="unif4" unicode="&#xf4;" d="M325 540Q382 540 433 519.50Q484 499 522.50 463Q561 427 583.50 377.50Q606 328 606 269Q606 208 583.50 157Q561 106 522.50 69Q484 32 433 11Q382-10 325-10Q269-10 218.50 10.50Q168 31 130 68Q92 105 70 156.50Q48 208 48 269Q48 328 70 378Q92 428 130 464Q168 500 218.50 520Q269 540 325 540M325 492Q288 492 257.50 476Q227 460 205.50 430.50Q184 401 172.50 359.50Q161 318 161 268Q161 216 172.50 174Q184 132 205.50 102.50Q227 73 257 57Q287 41 325 41Q363 41 394 57Q425 73 447 103Q469 133 481 175Q493 217 493 268Q493 318 481 359Q469 400 447 429.50Q425 459 394 475.50Q363 492 325 492M370 780L489 651L444 651L325 719L206 651L161 651L280 780L370 780Z"  horiz-adv-x="654" vert-adv-y="1000"  />

      
      <glyph glyph-name="uni0109" unicode="&#x0109;" d="M506 83Q470 39 413 14.50Q356-10 290-10Q237-10 192.50 9.50Q148 29 116 64.50Q84 100 66.50 150Q49 200 49 261Q49 325 69 376.50Q89 428 125.50 464.50Q162 501 213.50 520.50Q265 540 327 540Q366 540 398 533.50Q430 527 453.50 515.50Q477 504 490 487.50Q503 471 503 452Q503 432 490 421Q477 410 454 410Q436 410 424 417.50Q412 425 393 451Q373 474 354.50 483.50Q336 493 307 493Q236 493 199.50 438Q163 383 163 276Q163 161 203.50 101.50Q244 42 322 42Q364 42 401 58.50Q438 75 476 112L506 83M361 780L480 651L435 651L316 719L197 651L152 651L271 780L361 780Z"  horiz-adv-x="536" vert-adv-y="1000"  />

      
      <glyph glyph-name="uniea" unicode="&#xea;" d="M522 93Q437-10 311-10Q252-10 204 9.50Q156 29 121.50 64.50Q87 100 68 149.50Q49 199 49 259Q49 320 69 372Q89 424 125.50 461Q162 498 212.50 519Q263 540 323 540Q420 540 473 487.50Q526 435 526 337Q526 323 520.50 320Q515 317 495 317L166 317Q164 309 163 297.50Q162 286 162 272Q162 220 174.50 177.50Q187 135 210.50 105Q234 75 266.50 58.50Q299 42 339 42Q381 42 417 60.50Q453 79 491 121L522 93M357 363Q377 363 389 364Q401 365 407 368Q413 371 415 376.50Q417 382 417 391Q417 437 387.50 464.50Q358 492 307 492Q199 492 173 363L357 363M358 780L477 651L432 651L313 719L194 651L149 651L268 780L358 780Z"  horiz-adv-x="573" vert-adv-y="1000"  />

      
      <glyph glyph-name="uni015D" unicode="&#x015D;" d="M86 0L64 0L64 172L89 172Q128 31 231 31Q271 31 294.50 50.50Q318 70 318 110Q318 125 313.50 135.50Q309 146 296.50 157.50Q284 169 261.50 184Q239 199 202 222Q168 243 143 261Q118 279 101 297.50Q84 316 75.50 337Q67 358 67 386Q67 420 78.50 448.50Q90 477 110 497Q130 517 157 528.50Q184 540 216 540Q243 540 272 531.50Q301 523 323 509L343 530L362 530L362 386L336 386Q314 447 288 473Q262 499 224 499Q190 499 169.50 481Q149 463 149 431Q149 414 154.50 401.50Q160 389 172 377Q184 365 202.50 352.50Q221 340 247 324Q290 297 320.50 276Q351 255 370 234.50Q389 214 398 192Q407 170 407 142Q407 71 361 30.50Q315-10 240-10Q162-10 106 35L86 0M268 780L387 651L342 651L223 719L104 651L59 651L178 780L268 780Z"  horiz-adv-x="454" vert-adv-y="1000"  />

      
      <glyph glyph-name="uni0175" unicode="&#x0175;" d="M278-10L241-10L111 406Q102 434 94 451Q86 468 75 478Q64 488 49 491.50Q34 495 12 495L12 530L277 530L277 495Q238 495 222 486Q206 477 206 455Q206 445 209 431.50Q212 418 217 398L285 159L289 159L436 530L467 530L600 159L604 159L664 321Q676 354 684 376.50Q692 399 696.50 414.50Q701 430 703 440Q705 450 705 459Q705 481 692 488Q679 495 638 495L638 530L838 530L838 495Q823 495 812.50 490.50Q802 486 791.50 473Q781 460 770 436Q759 412 743 373L588-10L551-10L429 359L425 359L278-10M496 780L615 651L570 651L451 719L332 651L287 651L406 780L496 780Z"  horiz-adv-x="852" vert-adv-y="1000"  />

      
      <glyph glyph-name="uni0177" unicode="&#x0177;" d="M281-157Q235-260 138-260Q75-260 75-213Q75-188 92.50-176.50Q110-165 157-157Q178-154 193-148.50Q208-143 220-134.50Q232-126 241.50-113Q251-100 260-81L295-11L103 406Q90 434 80.50 450.50Q71 467 60.50 476.50Q50 486 37 489.50Q24 493 4 495L4 530L269 530L269 495Q202 495 202 462Q202 449 210 421Q218 393 230 364L340 98L345 98L436 323Q449 356 457.50 377Q466 398 470.50 411.50Q475 425 476.50 434Q478 443 478 451Q478 477 463.50 486Q449 495 408 495L408 530L628 530L628 495Q609 495 596 490Q583 485 569.50 467.50Q556 450 539.50 417Q523 384 499 328L281-157M394 780L513 651L468 651L349 719L230 651L185 651L304 780L394 780Z"  horiz-adv-x="639" vert-adv-y="1000"  />

      
      <glyph glyph-name="uniee" unicode="&#xee;" d="M228 162Q228 123 231.50 99Q235 75 245 61.50Q255 48 273 43Q291 38 321 37L321 0L34 0L34 37Q64 38 83 43.50Q102 49 112.50 61.50Q123 74 126.50 96.50Q130 119 130 154L130 278Q130 336 128.50 373Q127 410 123 424Q118 448 100 456.50Q82 465 32 465L32 502L228 540L228 162M225 780L344 651L299 651L180 719L61 651L16 651L135 780L225 780Z"  horiz-adv-x="341" vert-adv-y="1000"  />

      
      <glyph glyph-name="uni0135" unicode="&#x0135;" d="M213-2Q213-127 160.50-193.50Q108-260 8-260Q-56-260-96.50-234.50Q-137-209-137-167Q-137-144-123.50-132Q-110-120-86-120Q-68-120-58.50-128.50Q-49-137-34-167Q-20-197-8-207Q4-217 29-217Q77-217 96-184Q115-151 115-68L115 280Q115 338 113.50 375.50Q112 413 108 427Q103 450 85 458.50Q67 467 17 467L17 502L213 540L213-2M207 780L326 651L281 651L162 719L43 651L-2 651L117 780L207 780Z"  horiz-adv-x="304" vert-adv-y="1000"  />

      
      <glyph glyph-name="uni0148" unicode="&#x0148;" d="M216 157Q216 116 218 92.50Q220 69 228.50 56.50Q237 44 253.50 40Q270 36 299 34L299 0L37 0L37 34Q65 36 81.50 40Q98 44 107 56Q116 68 118.50 90Q121 112 121 150L121 283Q121 402 115 428Q112 441 107.50 449.50Q103 458 94 462.50Q85 467 71 468.50Q57 470 35 470L35 502L195 540L207 441L211 441Q249 488 300 514Q351 540 411 540Q457 540 495 525Q533 510 553 484Q570 461 577 424.50Q584 388 584 324L584 157Q584 116 586.50 92.50Q589 69 597 56.50Q605 44 621.50 40Q638 36 665 34L665 0L406 0L406 34Q434 35 450.50 39.50Q467 44 475.50 56Q484 68 486.50 90.50Q489 113 489 150L489 282Q489 339 483 378Q477 417 463.50 441Q450 465 428 475.50Q406 486 375 486Q330 486 292.50 462.50Q255 439 234 398Q229 388 225.50 379Q222 370 220 358Q218 346 217 330.50Q216 315 216 291L216 157M308 651L189 780L234 780L353 712L472 780L517 780L398 651L308 651Z"  horiz-adv-x="689" vert-adv-y="1000"  />

      
      <glyph glyph-name="uni0159" unicode="&#x0159;" d="M222 159Q222 118 224 94Q226 70 234.50 57.50Q243 45 259 41Q275 37 304 35L304 0L38 0L38 35Q67 36 84 40.50Q101 45 110 57Q119 69 121.50 91.50Q124 114 124 152L124 269Q124 337 122.50 375Q121 413 112.50 431Q104 449 86 452.50Q68 456 36 456L36 491L211 529L225 405L229 405Q242 435 261.50 460Q281 485 304 502.50Q327 520 352 530Q377 540 403 540Q435 540 453.50 524.50Q472 509 472 483Q472 459 457 445.50Q442 432 414 432Q398 432 387 436Q376 440 367.50 444.50Q359 449 351.50 453Q344 457 335 457Q308 457 281 422.50Q254 388 239 335Q231 306 226.50 269.50Q222 233 222 193L222 159M225 651L106 780L151 780L270 712L389 780L434 780L315 651L225 651Z"  horiz-adv-x="477" vert-adv-y="1000"  />

      
      <glyph glyph-name="uni010D" unicode="&#x010D;" d="M506 83Q470 39 413 14.50Q356-10 290-10Q237-10 192.50 9.50Q148 29 116 64.50Q84 100 66.50 150Q49 200 49 261Q49 325 69 376.50Q89 428 125.50 464.50Q162 501 213.50 520.50Q265 540 327 540Q366 540 398 533.50Q430 527 453.50 515.50Q477 504 490 487.50Q503 471 503 452Q503 432 490 421Q477 410 454 410Q436 410 424 417.50Q412 425 393 451Q373 474 354.50 483.50Q336 493 307 493Q236 493 199.50 438Q163 383 163 276Q163 161 203.50 101.50Q244 42 322 42Q364 42 401 58.50Q438 75 476 112L506 83M271 651L152 780L197 780L316 712L435 780L480 780L361 651L271 651Z"  horiz-adv-x="536" vert-adv-y="1000"  />

      
      <glyph glyph-name="uni011B" unicode="&#x011B;" d="M522 93Q437-10 311-10Q252-10 204 9.50Q156 29 121.50 64.50Q87 100 68 149.50Q49 199 49 259Q49 320 69 372Q89 424 125.50 461Q162 498 212.50 519Q263 540 323 540Q420 540 473 487.50Q526 435 526 337Q526 323 520.50 320Q515 317 495 317L166 317Q164 309 163 297.50Q162 286 162 272Q162 220 174.50 177.50Q187 135 210.50 105Q234 75 266.50 58.50Q299 42 339 42Q381 42 417 60.50Q453 79 491 121L522 93M357 363Q377 363 389 364Q401 365 407 368Q413 371 415 376.50Q417 382 417 391Q417 437 387.50 464.50Q358 492 307 492Q199 492 173 363L357 363M268 651L149 780L194 780L313 712L432 780L477 780L358 651L268 651Z"  horiz-adv-x="573" vert-adv-y="1000"  />

      
      <glyph glyph-name="uni0161" unicode="&#x0161;" d="M86 0L64 0L64 172L89 172Q128 31 231 31Q271 31 294.50 50.50Q318 70 318 110Q318 125 313.50 135.50Q309 146 296.50 157.50Q284 169 261.50 184Q239 199 202 222Q168 243 143 261Q118 279 101 297.50Q84 316 75.50 337Q67 358 67 386Q67 420 78.50 448.50Q90 477 110 497Q130 517 157 528.50Q184 540 216 540Q243 540 272 531.50Q301 523 323 509L343 530L362 530L362 386L336 386Q314 447 288 473Q262 499 224 499Q190 499 169.50 481Q149 463 149 431Q149 414 154.50 401.50Q160 389 172 377Q184 365 202.50 352.50Q221 340 247 324Q290 297 320.50 276Q351 255 370 234.50Q389 214 398 192Q407 170 407 142Q407 71 361 30.50Q315-10 240-10Q162-10 106 35L86 0M178 651L59 780L104 780L223 712L342 780L387 780L268 651L178 651Z"  horiz-adv-x="454" vert-adv-y="1000"  />

      
      <glyph glyph-name="uni017E" unicode="&#x017E;" d="M498 0L18 0L18 4L364 488L253 488Q210 488 182.50 484.50Q155 481 137.50 470.50Q120 460 111 441.50Q102 423 97 392L65 392L81 530L511 530L511 526L170 46L287 46Q338 46 371.50 50Q405 54 426.50 66Q448 78 460.50 99Q473 120 482 155L515 155L498 0M242 651L123 780L168 780L287 712L406 780L451 780L332 651L242 651Z"  horiz-adv-x="557" vert-adv-y="1000"  />

      
      <glyph glyph-name="unie6" unicode="&#xe6;" d="M802 93Q714-10 594-10Q520-10 465 24Q410 58 380 118Q352 57 300.50 24Q249-9 182-9Q117-9 80 22.50Q43 54 43 109Q43 164 82.50 204.50Q122 245 205 276L349 329L349 380Q349 443 323.50 472.50Q298 502 243 502Q211 502 197 488.50Q183 475 169 437Q158 408 147.50 398.50Q137 389 118 389Q67 389 67 439Q67 487 118.50 513.50Q170 540 264 540Q333 540 372 523.50Q411 507 430 471Q463 504 507.50 522Q552 540 606 540Q700 540 753 486.50Q806 433 806 339Q806 328 799.50 322.50Q793 317 775 317L466 317Q462 305 462 273Q462 166 504.50 104Q547 42 622 42Q699 42 771 121L802 93M349 286Q241 246 192.50 208.50Q144 171 144 126Q144 93 166.50 72Q189 51 224 51Q249 51 272 62.50Q295 74 312 94Q329 114 339 140.50Q349 167 349 197L349 286M637 363Q657 363 669 364Q681 365 687 367.50Q693 370 695 375.50Q697 381 697 390Q697 436 667.50 464Q638 492 590 492Q542 492 513.50 460.50Q485 429 473 363L637 363Z"  horiz-adv-x="852" vert-adv-y="1000"  />

      
      <glyph glyph-name="uni01FD" unicode="&#x01FD;" d="M802 93Q714-10 594-10Q520-10 465 24Q410 58 380 118Q352 57 300.50 24Q249-9 182-9Q117-9 80 22.50Q43 54 43 109Q43 164 82.50 204.50Q122 245 205 276L349 329L349 380Q349 443 323.50 472.50Q298 502 243 502Q211 502 197 488.50Q183 475 169 437Q158 408 147.50 398.50Q137 389 118 389Q67 389 67 439Q67 487 118.50 513.50Q170 540 264 540Q333 540 372 523.50Q411 507 430 471Q463 504 507.50 522Q552 540 606 540Q700 540 753 486.50Q806 433 806 339Q806 328 799.50 322.50Q793 317 775 317L466 317Q462 305 462 273Q462 166 504.50 104Q547 42 622 42Q699 42 771 121L802 93M349 286Q241 246 192.50 208.50Q144 171 144 126Q144 93 166.50 72Q189 51 224 51Q249 51 272 62.50Q295 74 312 94Q329 114 339 140.50Q349 167 349 197L349 286M637 363Q657 363 669 364Q681 365 687 367.50Q693 370 695 375.50Q697 381 697 390Q697 436 667.50 464Q638 492 590 492Q542 492 513.50 460.50Q485 429 473 363L637 363M341 651L471 770Q507 803 538 803Q555 803 565.50 794Q576 785 576 768Q576 752 562.50 739.50Q549 727 525 716L388 651L341 651Z"  horiz-adv-x="852" vert-adv-y="1000"  />

      
      <glyph glyph-name="unib7" unicode="&#xb7;" d="M77 274Q77 302 96 321Q115 340 142 340Q170 340 189 321Q208 302 208 274Q208 247 189 228Q170 209 142 209Q115 209 96 228Q77 247 77 274Z"  horiz-adv-x="285" vert-adv-y="1000"  />

      
      <glyph glyph-name="uni2219" unicode="&#x2219;" d="M77 274Q77 302 96 321Q115 340 142 340Q170 340 189 321Q208 302 208 274Q208 247 189 228Q170 209 142 209Q115 209 96 228Q77 247 77 274Z"  horiz-adv-x="285" vert-adv-y="1000"  />

      
      <glyph glyph-name="uni0153" unicode="&#x0153;" d="M966 93Q881-10 755-10Q686-10 632 16.50Q578 43 543 91Q504 43 447 16.50Q390-10 325-10Q269-10 218.50 10.50Q168 31 130 68Q92 105 70 156.50Q48 208 48 269Q48 328 70 378Q92 428 130 464Q168 500 218.50 520Q269 540 325 540Q392 540 450.50 512Q509 484 548 436Q584 485 640 512.50Q696 540 767 540Q864 540 917 487.50Q970 435 970 337Q970 323 964.50 320Q959 317 939 317L610 317Q608 309 607 297.50Q606 286 606 272L606 261Q607 211 620 170.50Q633 130 656 101.50Q679 73 711.50 57.50Q744 42 783 42Q825 42 861 60.50Q897 79 935 121L966 93M325 492Q288 492 257.50 476Q227 460 205.50 430.50Q184 401 172.50 359.50Q161 318 161 268Q161 216 172.50 174Q184 132 205.50 102.50Q227 73 257 57Q287 41 325 41Q362 41 392.50 56.50Q423 72 445 100.50Q467 129 479.50 169Q492 209 493 259L493 268Q493 318 481 359Q469 400 447 429.50Q425 459 394 475.50Q363 492 325 492M801 363Q821 363 833 364Q845 365 851 368Q857 371 859 376.50Q861 382 861 391Q861 437 831.50 464.50Q802 492 751 492Q643 492 617 363L801 363Z"  horiz-adv-x="1017" vert-adv-y="1000"  />

      
      <glyph glyph-name="uni0138" unicode="&#x0138;" d="M365 35Q397 35 407 38Q417 41 417 50Q417 59 407 74.50Q397 90 368 125L262 253L225 218L225 159Q225 120 228.50 95.50Q232 71 242 57.50Q252 44 270.50 39.50Q289 35 318 35L318 0L34 0L34 35Q64 35 82.50 40Q101 45 111.50 57.50Q122 70 126 93Q130 116 130 152L130 360Q130 400 127 423.50Q124 447 114 459Q104 471 84.50 474.50Q65 478 32 478L32 512L225 550L225 281L318 372Q367 419 385.50 441.50Q404 464 404 475Q404 486 387 490.50Q370 495 326 495L326 530L586 530L586 495Q568 495 554 493Q540 491 527.50 485Q515 479 501 468.50Q487 458 468 442L324 314L522 90Q551 57 573 46Q595 35 628 35L628 0L365 0L365 35Z"  horiz-adv-x="633" vert-adv-y="1000"  />

      
      <glyph glyph-name="uni0152" unicode="&#x0152;" d="M1059 770L1068 594L1033 594Q1027 634 1013.50 659.50Q1000 685 976.50 700Q953 715 917 721Q881 727 830 727L703 727Q686 727 686 710L686 423Q734 423 770 428Q806 433 829 445.50Q852 458 863.50 480.50Q875 503 875 538L910 538L910 265L875 265Q875 301 864.50 323.50Q854 346 831.50 359Q809 372 773 377.50Q737 383 686 383L686 157Q686 124 694 102.50Q702 81 721.50 67.50Q741 54 773 48.50Q805 43 852 43Q905 43 942 50.50Q979 58 1004 76Q1029 94 1044 123.50Q1059 153 1069 197L1107 197L1092 0L471 0Q384 0 308.50 29.50Q233 59 177.50 110.50Q122 162 90 231Q58 300 58 379Q58 461 90 532.50Q122 604 178 657Q234 710 310 740Q386 770 474 770L1059 770M474 730Q408 730 355 705.50Q302 681 265 635Q228 589 208 523.50Q188 458 188 376Q188 299 208 237Q228 175 265 131.50Q302 88 355 65Q408 42 474 42Q509 42 530 46Q551 50 562.50 62Q574 74 577.50 95.50Q581 117 581 152L581 618Q581 653 576.50 675Q572 697 560 709Q548 721 527 725.50Q506 730 474 730Z"  horiz-adv-x="1152" vert-adv-y="1000"  />

      
      <glyph glyph-name="uni02DC" unicode="&#x02DC;" d="M20 660Q28 711 57.50 742.50Q87 774 126 774Q146 774 165.50 767Q185 760 204.50 751Q224 742 243 735Q262 728 281 728Q300 728 310 737.50Q320 747 328 770L361 770Q356 719 327.50 685.50Q299 652 261 652Q241 652 221 659.50Q201 667 180.50 676Q160 685 139.50 692.50Q119 700 99 700Q80 700 70.50 691.50Q61 683 54 660L20 660Z"  horiz-adv-x="381" vert-adv-y="1000"  />

      
      <glyph glyph-name="uni7e" unicode="&#x7e;" d="M84 249Q93 302 122.50 332.50Q152 363 194 363Q215 363 240 356Q265 349 290.50 340Q316 331 342 324Q368 317 391 317Q410 317 419.50 326Q429 335 437 359L470 359Q462 306 434 273.50Q406 241 367 241Q346 241 320.50 248.50Q295 256 268 265Q241 274 214 281.50Q187 289 163 289Q144 289 134.50 280.50Q125 272 118 249L84 249Z"  horiz-adv-x="553" vert-adv-y="1000"  />

      
      <glyph glyph-name="unie3" unicode="&#xe3;" d="M349 296Q292 274 252.50 253Q213 232 189 211Q165 190 154.50 169Q144 148 144 126Q144 93 166 72Q188 51 224 51Q250 51 272.50 64Q295 77 312 99.50Q329 122 339 152.50Q349 183 349 217L349 296M349 339L349 380Q349 502 245 502Q228 502 216 499Q204 496 196 489Q188 482 181.50 469Q175 456 169 437Q158 408 147.50 398.50Q137 389 117 389Q67 389 67 439Q67 487 118 513.50Q169 540 263 540Q363 540 405 504.50Q447 469 447 384L447 160Q447 46 492 46Q506 46 519 49.50Q532 53 541 68L555 44Q543 21 511 5.50Q479-10 444-10Q400-10 378.50 18Q357 46 357 97L352 97Q326 48 280 19.50Q234-9 178-9Q115-9 79 23Q43 55 43 109Q43 133 51.50 155Q60 177 79 197Q98 217 129 236.50Q160 256 205 276L349 339M95 660Q103 711 132.50 742.50Q162 774 201 774Q221 774 240.50 767Q260 760 279.50 751Q299 742 318 735Q337 728 356 728Q375 728 385 737.50Q395 747 403 770L436 770Q431 719 402.50 685.50Q374 652 336 652Q316 652 296 659.50Q276 667 255.50 676Q235 685 214.50 692.50Q194 700 174 700Q155 700 145.50 691.50Q136 683 129 660L95 660Z"  horiz-adv-x="554" vert-adv-y="1000"  />

      
      <glyph glyph-name="unif1" unicode="&#xf1;" d="M216 157Q216 116 218 92.50Q220 69 228.50 56.50Q237 44 253.50 40Q270 36 299 34L299 0L37 0L37 34Q65 36 81.50 40Q98 44 107 56Q116 68 118.50 90Q121 112 121 150L121 283Q121 402 115 428Q112 441 107.50 449.50Q103 458 94 462.50Q85 467 71 468.50Q57 470 35 470L35 502L195 540L207 441L211 441Q249 488 300 514Q351 540 411 540Q457 540 495 525Q533 510 553 484Q570 461 577 424.50Q584 388 584 324L584 157Q584 116 586.50 92.50Q589 69 597 56.50Q605 44 621.50 40Q638 36 665 34L665 0L406 0L406 34Q434 35 450.50 39.50Q467 44 475.50 56Q484 68 486.50 90.50Q489 113 489 150L489 282Q489 339 483 378Q477 417 463.50 441Q450 465 428 475.50Q406 486 375 486Q330 486 292.50 462.50Q255 439 234 398Q229 388 225.50 379Q222 370 220 358Q218 346 217 330.50Q216 315 216 291L216 157M175 660Q183 711 212.50 742.50Q242 774 281 774Q301 774 320.50 767Q340 760 359.50 751Q379 742 398 735Q417 728 436 728Q455 728 465 737.50Q475 747 483 770L516 770Q511 719 482.50 685.50Q454 652 416 652Q396 652 376 659.50Q356 667 335.50 676Q315 685 294.50 692.50Q274 700 254 700Q235 700 225.50 691.50Q216 683 209 660L175 660Z"  horiz-adv-x="689" vert-adv-y="1000"  />

      
      <glyph glyph-name="uni0169" unicode="&#x0169;" d="M463 370Q463 411 461 434.50Q459 458 450.50 470.50Q442 483 425.50 487.50Q409 492 380 495L380 530L561 530L561 223Q561 166 562.50 130Q564 94 567 76Q569 63 573.50 55.50Q578 48 587 43.50Q596 39 610.50 37.50Q625 36 648 36L648 1L483-11L472 109L468 109Q430 47 380.50 18.50Q331-10 277-10Q235-10 195.50 6Q156 22 136 49Q119 71 111.50 110Q104 149 104 211L104 370Q104 411 102 434.50Q100 458 91.50 470.50Q83 483 66.50 487.50Q50 492 21 495L21 530L202 530L202 257Q202 148 227.50 99Q253 50 309 50Q397 50 446 165Q451 177 454 187Q457 197 459 209Q461 221 462 236Q463 251 463 272L463 370M135 660Q143 711 172.50 742.50Q202 774 241 774Q261 774 280.50 767Q300 760 319.50 751Q339 742 358 735Q377 728 396 728Q415 728 425 737.50Q435 747 443 770L476 770Q471 719 442.50 685.50Q414 652 376 652Q356 652 336 659.50Q316 667 295.50 676Q275 685 254.50 692.50Q234 700 214 700Q195 700 185.50 691.50Q176 683 169 660L135 660Z"  horiz-adv-x="670" vert-adv-y="1000"  />

      
      </font>
</defs>
</svg>
